<?xml version="1.0" standalone="no"?>
<!DOCTYPE svg PUBLIC "-//W3C//DTD SVG 20010904//EN"
 "http://www.w3.org/TR/2001/REC-SVG-20010904/DTD/svg10.dtd">
<svg version="1.0" xmlns="http://www.w3.org/2000/svg"
 width="14863.000000pt" height="6969.000000pt" viewBox="0 0 14863.000000 6969.000000"
 preserveAspectRatio="xMidYMid meet">

<g transform="translate(0.000000,6969.000000) scale(0.100000,-0.100000)"
fill="#000000" stroke="none">
<path d="M35910 49003 c-102 -1 -2442 -7 -5200 -13 -3960 -8 -5017 -13 -5026
-23 -6 -6 -65 -109 -129 -227 -65 -118 -245 -447 -400 -730 -155 -283 -335
-612 -400 -730 -64 -118 -139 -253 -165 -300 -26 -47 -64 -116 -85 -155 -21
-38 -97 -178 -170 -310 -73 -132 -174 -316 -225 -410 -51 -93 -104 -189 -117
-212 -12 -24 -34 -62 -46 -85 -13 -24 -66 -119 -117 -213 -51 -93 -104 -190
-118 -215 -13 -25 -89 -162 -167 -305 -78 -143 -154 -280 -167 -305 -14 -25
-56 -101 -93 -169 -79 -144 -88 -120 75 -210 58 -32 177 -99 265 -148 88 -50
192 -107 230 -128 39 -21 87 -49 107 -62 21 -13 40 -23 43 -23 5 0 92 -49 253
-142 45 -26 86 -48 90 -48 4 0 88 141 186 313 99 171 209 364 246 427 79 137
192 333 325 565 54 94 130 226 170 295 40 69 134 233 210 365 76 132 190 330
253 440 63 110 123 214 132 230 36 64 440 766 582 1011 l58 102 1813 6 c996 3
3028 7 4514 9 l2702 3 27 -51 c15 -27 64 -115 109 -195 105 -186 253 -448 294
-524 18 -32 46 -81 62 -108 16 -27 29 -51 29 -53 0 -3 20 -39 45 -81 25 -41
45 -77 45 -79 0 -2 14 -28 31 -57 18 -29 76 -132 129 -228 54 -96 126 -224
160 -285 34 -60 78 -139 97 -175 20 -36 39 -69 43 -75 4 -5 22 -37 40 -70 18
-33 72 -130 120 -215 48 -85 149 -265 225 -400 76 -135 149 -265 163 -290 13
-25 32 -58 42 -75 10 -16 29 -50 42 -75 29 -52 222 -397 345 -615 46 -82 88
-153 92 -158 8 -8 1391 -41 1398 -33 3 2 -35 78 -83 168 -48 89 -109 206 -137
258 -59 114 -130 246 -167 315 -15 28 -53 100 -85 160 -81 155 -130 246 -227
430 -47 88 -109 205 -138 260 -29 55 -70 132 -90 170 -21 39 -117 221 -215
405 -98 184 -197 372 -221 418 -55 102 -114 215 -189 357 -32 61 -73 137 -90
170 -18 33 -94 177 -170 320 -76 143 -152 287 -170 320 -18 33 -58 110 -90
170 -32 61 -75 142 -95 180 -20 39 -65 124 -100 190 -34 66 -70 134 -80 150
-9 17 -43 80 -75 140 -32 61 -74 142 -95 180 -40 76 -107 202 -190 360 -29 55
-57 106 -63 113 -7 8 -39 11 -111 10 -55 -2 -184 -4 -286 -5z"/>
<path d="M29045 44684 c-200 -21 -432 -78 -597 -146 -78 -32 -280 -140 -344
-183 -254 -174 -461 -386 -609 -626 -141 -228 -230 -457 -287 -741 -19 -99
-22 -144 -23 -363 0 -202 4 -269 19 -350 83 -448 271 -816 571 -1120 303 -306
643 -488 1080 -577 129 -26 469 -36 612 -18 692 86 1289 517 1588 1144 245
513 277 1056 93 1601 -142 421 -448 811 -828 1057 -242 157 -483 250 -785 303
-87 16 -405 28 -490 19z m347 -1304 c219 -55 398 -201 502 -408 106 -211 108
-495 5 -704 -100 -204 -262 -342 -479 -409 -97 -30 -282 -33 -375 -6 -352 103
-577 398 -579 762 -1 140 20 228 85 362 98 201 266 339 487 403 93 26 251 26
354 0z"/>
<path d="M69650 43798 l0 -513 478 -89 c262 -50 496 -94 520 -99 l42 -9 0
-3923 0 -3923 -42 -9 c-24 -5 -244 -49 -490 -99 l-448 -89 0 -507 0 -508 1785
0 1785 0 0 508 0 508 -442 93 c-244 51 -453 95 -465 98 l-23 5 0 1988 0 1988
61 84 c82 111 262 287 379 371 116 82 321 185 452 226 183 58 309 75 538 75
285 0 463 -35 657 -129 343 -166 530 -459 607 -950 31 -201 36 -448 36 -2048
l0 -1597 -22 -9 c-13 -4 -224 -50 -470 -102 l-448 -94 0 -507 0 -508 1790 0
1790 0 -2 508 -3 507 -492 99 -492 99 -4 1791 c-4 1938 -2 1866 -58 2221 -124
778 -431 1316 -947 1664 -365 245 -819 371 -1347 371 -825 0 -1490 -337 -2002
-1016 l-22 -29 0 2033 -1 2032 -1350 0 -1350 0 0 -512z"/>
<path d="M46990 42375 l0 -1245 625 0 c493 0 625 3 625 13 0 6 32 277 70 601
39 324 70 593 70 597 0 5 434 9 965 9 l965 0 0 -3554 0 -3554 -172 -32 c-95
-18 -330 -63 -523 -99 l-350 -66 -3 -508 -2 -507 1880 0 1880 0 0 508 0 507
-497 94 c-274 51 -510 96 -525 98 l-28 6 0 3553 0 3554 965 0 965 0 5 -22 c2
-13 34 -277 70 -588 36 -311 68 -575 70 -587 l5 -23 625 0 625 0 0 1245 0
1245 -4155 0 -4155 0 0 -1245z"/>
<path d="M34373 42698 c4 -260 7 -551 7 -647 l0 -173 2153 6 2152 7 189 -235
c187 -232 190 -235 216 -223 29 13 515 260 800 406 96 49 174 94 173 99 -1 5
-63 112 -136 238 -74 126 -232 396 -352 599 -119 204 -220 373 -223 376 -4 4
-1127 10 -2496 14 l-2489 7 6 -474z"/>
<path d="M20898 41504 c-762 -104 -1406 -640 -1657 -1379 -160 -475 -145
-1003 44 -1464 319 -778 1061 -1281 1890 -1281 320 0 604 65 890 205 545 265
948 768 1095 1368 83 338 73 761 -27 1092 -218 726 -809 1277 -1538 1434 -190
41 -500 52 -697 25z m425 -1284 c237 -45 466 -245 556 -486 89 -235 59 -517
-75 -720 -221 -333 -632 -443 -974 -261 -250 134 -409 402 -410 693 0 235 83
430 249 587 178 167 407 233 654 187z"/>
<path d="M40434 41505 c-448 -70 -836 -267 -1148 -581 -314 -315 -515 -716
-582 -1160 -27 -174 -24 -486 5 -651 78 -447 276 -829 588 -1140 229 -228 538
-416 818 -497 33 -10 71 -21 85 -26 103 -35 366 -70 523 -70 1037 0 1909 783
2032 1825 65 560 -99 1128 -452 1565 -83 102 -260 273 -360 347 -282 209 -590
336 -938 388 -123 18 -455 18 -571 0z m420 -1279 c317 -61 567 -322 617 -646
60 -389 -166 -767 -527 -880 -88 -28 -239 -37 -339 -21 -540 88 -814 744 -506
1214 168 255 468 387 755 333z"/>
<path d="M58520 41283 c-202 -19 -275 -28 -400 -53 -453 -90 -867 -284 -1240
-580 -134 -106 -372 -345 -479 -480 -473 -596 -738 -1328 -791 -2180 -13 -212
-13 -648 0 -860 44 -713 241 -1332 593 -1860 239 -359 551 -664 917 -895 126
-80 409 -220 540 -268 457 -169 955 -237 1519 -209 615 31 1042 128 1550 352
154 68 368 182 499 266 96 62 262 184 281 208 10 12 -34 107 -245 528 -141
282 -258 515 -260 517 -2 2 -41 -21 -86 -52 -346 -230 -744 -400 -1118 -476
-506 -103 -1000 -93 -1344 26 -221 76 -407 194 -581 368 -216 216 -367 484
-466 825 -52 183 -107 533 -97 630 l3 35 2190 5 2190 5 -1 610 c-1 726 -13
906 -85 1275 -157 801 -541 1418 -1124 1807 -395 264 -858 410 -1430 453 -128
9 -451 11 -535 3z m420 -1253 c319 -33 541 -128 738 -314 277 -262 411 -640
429 -1208 l6 -208 -1386 0 -1387 0 -6 24 c-13 54 66 418 136 619 114 332 259
570 464 765 274 258 602 364 1006 322z"/>
<path d="M65775 41284 c-487 -39 -851 -134 -1225 -320 -286 -142 -544 -328
-775 -559 -534 -534 -867 -1268 -970 -2140 -35 -301 -41 -832 -14 -1195 72
-949 426 -1761 1015 -2330 371 -358 834 -615 1330 -740 608 -153 1379 -143
1974 26 482 137 921 422 1215 787 280 347 484 827 559 1317 9 58 19 117 21
133 3 15 -1 38 -7 52 l-11 25 -717 0 -716 0 -27 -105 c-72 -286 -214 -536
-405 -717 -178 -168 -397 -273 -675 -325 -132 -24 -449 -24 -572 0 -517 104
-889 430 -1120 981 -130 310 -195 655 -216 1135 -32 765 54 1334 271 1788 204
428 529 736 910 864 321 107 742 108 1060 3 176 -59 386 -178 503 -286 l58
-53 122 -627 121 -628 634 0 635 0 -5 952 -5 952 -74 68 c-212 195 -466 370
-754 519 -449 233 -865 354 -1405 409 -107 11 -645 21 -735 14z"/>
<path d="M27437 40527 c-14 -23 -90 -159 -170 -302 -79 -143 -185 -332 -234
-420 -50 -88 -136 -243 -193 -345 -57 -102 -116 -207 -132 -233 -15 -26 -28
-50 -28 -53 0 -2 -10 -21 -23 -42 -13 -20 -40 -66 -59 -102 -94 -170 -502
-899 -538 -960 -16 -28 -30 -53 -30 -55 0 -2 -13 -26 -29 -53 -16 -27 -44 -76
-62 -108 -17 -33 -64 -115 -102 -184 -39 -69 -81 -145 -95 -170 -14 -25 -40
-71 -58 -103 -19 -32 -34 -60 -34 -62 0 -2 -20 -38 -45 -79 -25 -42 -45 -79
-45 -81 0 -3 -10 -22 -23 -43 -13 -20 -41 -68 -62 -107 -21 -38 -66 -119 -100
-180 -34 -60 -75 -132 -90 -160 -33 -59 -395 -707 -570 -1020 -68 -121 -126
-227 -129 -235 -4 -9 23 -56 62 -112 37 -54 137 -199 222 -324 85 -125 198
-289 250 -365 52 -76 155 -227 229 -335 73 -107 137 -192 141 -187 4 4 25 42
47 83 35 66 431 794 495 910 45 81 84 154 133 245 26 50 65 119 85 155 20 36
53 94 72 130 34 63 384 705 433 795 55 100 75 137 162 295 49 91 106 194 125
230 55 102 403 741 428 785 12 22 162 297 332 610 171 314 318 584 328 600 10
17 35 62 55 100 65 121 108 199 294 538 l130 238 -157 103 c-86 56 -191 124
-232 151 -41 27 -140 91 -220 143 -143 94 -245 160 -439 286 l-100 65 -24 -42z"/>
<path d="M42319 37429 c-57 -40 -133 -92 -169 -117 -36 -25 -112 -78 -170
-117 -58 -40 -152 -104 -210 -144 -58 -40 -176 -121 -262 -179 -87 -59 -158
-111 -158 -115 0 -5 51 -97 114 -205 126 -218 424 -734 576 -997 54 -93 181
-314 283 -490 101 -176 194 -336 205 -355 36 -64 278 -483 377 -655 302 -520
307 -530 296 -547 -6 -9 -52 -92 -104 -185 -52 -92 -147 -262 -212 -378 -65
-115 -131 -235 -148 -265 -17 -30 -41 -72 -54 -92 -13 -21 -23 -40 -23 -42 0
-3 -15 -31 -34 -63 -18 -32 -98 -173 -176 -313 -148 -264 -217 -388 -280 -500
-20 -36 -59 -105 -87 -155 -28 -49 -103 -184 -168 -300 -65 -115 -129 -230
-143 -255 -14 -25 -84 -151 -157 -280 -73 -129 -196 -350 -275 -490 -78 -140
-162 -289 -185 -330 -46 -81 -301 -535 -373 -665 -25 -44 -84 -150 -132 -235
-48 -85 -102 -182 -120 -215 -18 -33 -50 -89 -70 -125 -21 -36 -81 -144 -135
-240 -54 -96 -117 -209 -140 -250 -36 -64 -183 -326 -255 -455 -13 -22 -77
-136 -143 -254 -99 -176 -117 -216 -106 -225 8 -6 125 -94 259 -196 135 -101
375 -282 533 -402 158 -120 289 -218 292 -218 3 0 55 89 132 230 28 50 91 165
163 295 37 66 167 304 300 545 107 195 245 445 292 530 14 25 62 113 108 195
45 83 95 173 110 200 26 47 97 175 160 290 15 28 64 115 107 195 44 80 91 165
105 190 14 25 53 97 88 160 35 63 107 194 160 290 53 96 111 200 127 230 17
30 54 98 83 150 29 52 65 118 80 145 61 112 90 165 140 255 29 52 65 118 80
145 15 28 50 91 77 140 77 139 94 169 183 330 45 83 95 173 110 200 36 65 166
300 300 545 126 229 257 466 292 530 14 25 49 88 78 140 29 52 65 118 80 145
15 28 65 118 110 200 45 83 95 173 110 200 29 53 139 253 272 495 44 80 84
150 89 157 7 7 -3 32 -29 75 -21 34 -52 88 -69 118 -16 30 -168 298 -338 595
-169 297 -409 718 -532 935 -124 217 -251 440 -283 495 -32 55 -151 264 -265
465 -114 201 -231 406 -260 455 -29 50 -63 110 -77 135 -118 213 -411 720
-417 720 -4 0 -55 -32 -112 -71z"/>
<path d="M22904 37392 c-55 -37 -131 -87 -170 -112 -38 -24 -139 -89 -224
-145 -85 -56 -251 -163 -367 -239 -117 -76 -213 -143 -213 -150 0 -6 6 -20 13
-31 8 -11 44 -78 82 -150 37 -71 89 -168 115 -215 26 -47 71 -130 100 -185 29
-55 83 -156 120 -225 37 -69 120 -224 185 -345 65 -121 146 -272 180 -335 34
-63 86 -160 115 -215 29 -55 79 -147 110 -205 31 -58 81 -150 110 -205 29 -55
65 -122 80 -150 16 -27 79 -144 140 -260 62 -115 164 -307 228 -425 63 -118
133 -249 155 -290 22 -41 66 -122 97 -180 32 -58 83 -154 115 -215 32 -60 66
-123 75 -140 10 -16 39 -70 65 -120 26 -49 94 -175 150 -280 99 -183 208 -387
303 -565 25 -47 90 -168 145 -270 108 -202 220 -410 287 -535 24 -44 58 -107
75 -140 59 -110 107 -199 187 -350 44 -82 88 -163 98 -180 9 -16 48 -88 85
-160 37 -71 71 -134 75 -140 4 -5 31 -55 60 -110 66 -126 113 -213 156 -291
l34 -62 362 -6 c555 -9 10221 -27 10229 -18 4 4 62 108 129 232 68 123 131
238 140 255 9 17 73 132 140 255 110 201 347 633 420 765 15 28 157 286 315
575 159 289 350 638 425 775 76 138 201 366 278 507 78 141 154 281 170 310
16 29 80 145 142 258 62 113 125 228 140 255 42 76 98 179 162 295 39 72 53
107 45 111 -7 4 -73 40 -147 81 -74 41 -161 90 -194 108 -32 17 -81 45 -108
61 -27 16 -51 29 -53 29 -2 0 -30 15 -62 34 -32 18 -80 46 -108 61 -113 62
-404 225 -463 259 -35 20 -65 36 -67 36 -2 0 -47 -82 -100 -182 -54 -101 -114
-212 -133 -248 -19 -36 -49 -92 -67 -125 -18 -33 -56 -105 -85 -160 -29 -55
-60 -113 -70 -130 -9 -16 -43 -79 -75 -140 -32 -60 -83 -157 -115 -215 -31
-58 -80 -148 -107 -200 -55 -102 -265 -497 -318 -595 -57 -106 -261 -487 -381
-712 -64 -120 -131 -245 -149 -278 -77 -145 -274 -512 -381 -712 -64 -120
-126 -235 -137 -255 l-21 -38 -4480 0 -4481 0 -30 58 c-16 31 -66 125 -111
207 -44 83 -104 195 -134 250 -29 55 -82 154 -118 220 -35 66 -82 154 -105
195 -56 107 -109 205 -149 280 -20 36 -57 106 -83 155 -26 50 -55 104 -65 120
-9 17 -43 80 -75 140 -32 61 -83 157 -115 215 -31 58 -81 150 -110 205 -29 55
-60 114 -70 130 -9 17 -41 75 -70 130 -29 55 -65 123 -80 150 -24 45 -63 118
-155 290 -30 57 -89 167 -259 483 -41 75 -97 182 -126 237 -29 55 -60 114 -70
130 -10 17 -39 71 -65 120 -26 50 -79 149 -118 220 -38 72 -90 168 -115 215
-25 47 -71 132 -102 190 -31 58 -81 150 -110 205 -64 122 -124 233 -160 300
-27 49 -65 121 -158 295 -25 47 -71 132 -102 190 -31 58 -81 150 -110 205 -29
55 -79 147 -110 205 -31 58 -77 143 -102 190 -89 168 -153 286 -185 345 -18
33 -45 84 -60 113 -15 28 -30 52 -33 51 -3 0 -50 -30 -106 -67z"/>
<path d="M95094 30909 c-714 -64 -1291 -561 -1477 -1274 -78 -298 -88 -655
-26 -960 108 -537 445 -985 913 -1214 256 -126 523 -179 836 -168 454 17 812
167 1110 466 139 139 219 250 299 415 45 94 101 235 101 257 0 5 -153 9 -389
9 l-389 0 -13 -32 c-24 -59 -108 -177 -167 -236 -74 -74 -132 -114 -235 -162
-140 -65 -197 -75 -407 -74 -172 0 -191 2 -273 27 -369 114 -607 393 -698 819
-26 122 -36 377 -20 518 60 509 361 868 801 957 103 20 304 20 405 -2 249 -53
437 -186 560 -398 l50 -86 388 -1 c253 0 387 3 387 10 0 18 -71 192 -110 271
-77 153 -216 335 -345 450 -343 308 -803 453 -1301 408z"/>
<path d="M98880 30914 c-597 -74 -1094 -429 -1356 -969 -210 -434 -243 -987
-88 -1466 44 -138 156 -359 241 -478 253 -353 625 -596 1045 -681 288 -59 629
-39 900 51 631 211 1073 764 1164 1452 23 172 15 507 -15 666 -136 717 -664
1263 -1356 1401 -86 18 -153 23 -305 25 -107 2 -211 1 -230 -1z m455 -663
c176 -44 309 -118 436 -241 166 -163 267 -367 314 -635 24 -136 24 -403 1
-540 -68 -389 -279 -689 -583 -827 -131 -59 -240 -81 -413 -82 -98 -1 -181 4
-225 13 -514 103 -825 542 -825 1166 0 640 327 1080 866 1165 95 15 337 4 429
-19z"/>
<path d="M111346 30909 c-210 -19 -422 -81 -618 -181 -162 -82 -274 -164 -408
-298 -266 -266 -429 -592 -495 -990 -22 -135 -30 -401 -16 -545 64 -654 415
-1179 962 -1439 220 -105 431 -154 699 -163 494 -16 893 139 1236 482 227 227
375 485 454 795 18 70 20 111 20 399 l0 321 -915 0 -915 0 0 -270 0 -270 580
0 c488 0 580 -2 580 -14 0 -8 -12 -54 -26 -102 -135 -467 -492 -723 -979 -701
-200 10 -366 57 -511 147 -319 196 -494 558 -494 1020 0 716 440 1189 1074
1157 316 -16 551 -144 702 -382 l47 -75 389 0 c213 0 388 2 388 5 0 17 -78
211 -110 276 -106 211 -294 424 -486 552 -246 164 -506 251 -818 277 -145 11
-197 11 -340 -1z"/>
<path d="M89857 30873 c-4 -3 -7 -804 -7 -1780 l0 -1773 985 0 985 0 0 290 0
290 -645 0 -645 0 0 470 0 470 570 0 570 0 0 285 0 285 -570 0 -570 0 2 443 3
442 643 3 642 2 -2 288 -3 287 -976 3 c-536 1 -979 -1 -982 -5z"/>
<path d="M106337 30873 c-4 -3 -7 -804 -7 -1780 l0 -1773 340 0 340 0 2 1217
3 1216 765 -1214 765 -1214 343 -3 342 -2 0 1780 0 1780 -340 0 -340 0 -2
-1219 -3 -1220 -766 1217 -765 1217 -335 3 c-185 1 -338 -1 -342 -5z"/>
<path d="M84890 29096 l0 -1776 654 0 c389 0 696 4 757 11 724 74 1247 470
1458 1105 120 360 134 809 36 1196 -150 589 -583 1023 -1170 1172 -237 60
-229 59 -1012 63 l-723 4 0 -1775z m1464 1145 c441 -98 712 -398 792 -876 20
-121 23 -404 5 -520 -66 -429 -279 -713 -634 -845 -156 -58 -197 -63 -584 -67
l-363 -5 0 1172 0 1172 343 -5 c305 -4 353 -7 441 -26z"/>
<path d="M88430 29095 l0 -1775 340 0 340 0 0 1775 0 1775 -340 0 -340 0 0
-1775z"/>
<path d="M101380 29096 l0 -1776 654 0 c389 0 696 4 757 11 724 74 1247 470
1458 1105 120 360 134 809 36 1196 -150 589 -583 1023 -1170 1172 -237 60
-229 59 -1012 63 l-723 4 0 -1775z m1464 1145 c441 -98 712 -398 792 -876 20
-121 23 -404 5 -520 -66 -429 -279 -713 -634 -845 -156 -58 -197 -63 -584 -67
l-363 -5 0 1172 0 1172 343 -5 c305 -4 353 -7 441 -26z"/>
<path d="M104920 29095 l0 -1775 340 0 340 0 0 1775 0 1775 -340 0 -340 0 0
-1775z"/>
<path d="M26028 29148 c57 -110 269 -510 477 -903 23 -44 66 -125 95 -180 74
-140 136 -258 180 -340 57 -107 121 -229 185 -350 32 -60 75 -141 95 -180 67
-125 296 -557 355 -670 62 -120 215 -408 275 -520 20 -38 61 -115 90 -170 29
-55 70 -131 90 -170 21 -38 63 -119 95 -180 32 -60 93 -175 135 -255 42 -80
105 -199 140 -265 34 -66 77 -147 95 -180 18 -33 98 -184 178 -335 80 -151
168 -318 196 -370 28 -52 70 -132 93 -177 l43 -83 2542 0 2543 0 0 748 0 749
-1187 7 c-654 3 -1631 6 -2172 6 -541 0 -985 1 -986 2 -1 2 -31 57 -65 123
-79 151 -318 604 -375 710 -23 44 -152 287 -285 540 -133 253 -262 497 -286
543 -24 45 -65 121 -90 170 -26 48 -68 128 -94 177 -26 50 -71 135 -100 190
-29 55 -90 170 -135 255 -45 85 -108 205 -140 265 -137 262 -159 304 -195 370
-20 39 -63 120 -95 180 -123 234 -149 282 -187 353 l-39 72 -770 0 -770 0 69
-132z"/>
<path d="M49640 28918 l0 -305 6318 -6 c3474 -4 11102 -10 16950 -14 l10632
-6 0 305 0 306 -1512 6 c-832 3 -8460 9 -16950 12 l-15438 6 0 -304z"/>
<path d="M114122 28903 l3 -308 1730 0 1730 0 3 308 2 307 -1735 0 -1735 0 2
-307z"/>
<path d="M38750 26755 c-116 -13 -264 -39 -310 -55 -14 -5 -52 -16 -85 -26
-155 -45 -348 -136 -505 -239 -504 -329 -838 -866 -920 -1478 -13 -102 -13
-410 1 -518 29 -232 89 -436 191 -648 213 -443 559 -784 1006 -989 242 -112
577 -187 832 -187 126 0 341 28 473 61 362 91 670 261 931 514 330 319 525
689 613 1160 14 74 18 149 18 340 0 250 -5 303 -47 480 -128 547 -471 1019
-952 1309 -249 151 -534 244 -841 276 -165 17 -249 17 -405 0z m315 -1285
c152 -22 297 -94 407 -203 161 -158 242 -351 242 -577 -1 -495 -442 -867 -907
-764 -90 20 -234 89 -309 148 -124 99 -233 271 -274 431 -40 160 -16 390 56
536 154 311 456 475 785 429z"/>
</g>
</svg>
