<?xml version="1.0" encoding="UTF-8"?>
<!DOCTYPE svg PUBLIC "-//W3C//DTD SVG 1.1//EN" "http://www.w3.org/Graphics/SVG/1.1/DTD/svg11.dtd">
<svg xmlns="http://www.w3.org/2000/svg" version="1.1" width="14863px" height="6969px" style="shape-rendering:geometricPrecision; text-rendering:geometricPrecision; image-rendering:optimizeQuality; fill-rule:evenodd; clip-rule:evenodd" xmlns:xlink="http://www.w3.org/1999/xlink">
<g><path style="opacity:0.182" fill="#fefefe" d="M 814.5,175.5 C 5226.17,175.5 9637.83,175.5 14049.5,175.5C 14049.5,2381.5 14049.5,4587.5 14049.5,6793.5C 9637.83,6793.5 5226.17,6793.5 814.5,6793.5C 814.5,4587.5 814.5,2381.5 814.5,175.5 Z"/></g>
<g><path style="opacity:1" fill="#a7a9bc" d="M 3630.5,2068.5 C 3512,2068.17 3393.67,2068.5 3275.5,2069.5C 3164.83,2069.5 3054.17,2069.5 2943.5,2069.5C 3168.67,2068.04 3394,2067.04 3619.5,2066.5C 3623.57,2066.51 3627.23,2067.18 3630.5,2068.5 Z"/></g>
<g><path style="opacity:1" fill="#173862" d="M 3630.5,2068.5 C 3634.07,2073.86 3637.07,2079.52 3639.5,2085.5C 3639.75,2087.97 3640.75,2089.97 3642.5,2091.5C 3660.1,2124.69 3677.76,2158.02 3695.5,2191.5C 3695.43,2193.03 3696.09,2194.03 3697.5,2194.5C 3718.4,2232.96 3738.73,2271.63 3758.5,2310.5C 3758.43,2312.03 3759.09,2313.03 3760.5,2313.5C 3809.22,2405.6 3857.88,2497.6 3906.5,2589.5C 3899.58,2591.46 3892.24,2592.13 3884.5,2591.5C 3845.49,2591.65 3806.49,2590.98 3767.5,2589.5C 3696.39,2462.27 3625.06,2335.27 3553.5,2208.5C 3433.17,2207.83 3312.67,2207.5 3192,2207.5C 3011.33,2207.33 2830.83,2208 2650.5,2209.5C 2618.46,2264.65 2586.79,2319.98 2555.5,2375.5C 2554.09,2375.97 2553.43,2376.97 2553.5,2378.5C 2541.27,2399.28 2529.27,2420.28 2517.5,2441.5C 2516.09,2441.97 2515.43,2442.97 2515.5,2444.5C 2488.58,2491.34 2461.42,2538 2434,2584.5C 2397.05,2563.61 2359.88,2543.11 2322.5,2523C 2321.94,2522.28 2321.61,2521.44 2321.5,2520.5C 2390.42,2392.98 2460.09,2265.98 2530.5,2139.5C 2532.25,2137.97 2533.25,2135.97 2533.5,2133.5C 2543.99,2113.18 2554.99,2093.18 2566.5,2073.5C 2601.69,2072.18 2637.02,2071.51 2672.5,2071.5C 2873.67,2070.97 3074.67,2070.31 3275.5,2069.5C 3393.67,2068.5 3512,2068.17 3630.5,2068.5 Z"/></g>
<g><path style="opacity:1" fill="#3a4d73" d="M 2943.5,2069.5 C 3054.17,2069.5 3164.83,2069.5 3275.5,2069.5C 3074.67,2070.31 2873.67,2070.97 2672.5,2071.5C 2637.02,2071.51 2601.69,2072.18 2566.5,2073.5C 2566.51,2071.98 2567.18,2070.82 2568.5,2070C 2693.5,2069.5 2818.5,2069.33 2943.5,2069.5 Z"/></g>
<g><path style="opacity:1" fill="#757b98" d="M 3639.5,2085.5 C 3641.25,2087.03 3642.25,2089.03 3642.5,2091.5C 3640.75,2089.97 3639.75,2087.97 3639.5,2085.5 Z"/></g>
<g><path style="opacity:1" fill="#6e7594" d="M 2533.5,2133.5 C 2533.25,2135.97 2532.25,2137.97 2530.5,2139.5C 2530.75,2137.03 2531.75,2135.03 2533.5,2133.5 Z"/></g>
<g><path style="opacity:1" fill="#9194ac" d="M 3695.5,2191.5 C 3696.91,2191.97 3697.57,2192.97 3697.5,2194.5C 3696.09,2194.03 3695.43,2193.03 3695.5,2191.5 Z"/></g>
<g><path style="opacity:1" fill="#707694" d="M 3553.5,2208.5 C 3252.5,2208.68 2951.5,2209.01 2650.5,2209.5C 2830.83,2208 3011.33,2207.33 3192,2207.5C 3312.67,2207.5 3433.17,2207.83 3553.5,2208.5 Z"/></g>
<g><path style="opacity:1" fill="#8f92aa" d="M 3758.5,2310.5 C 3759.91,2310.97 3760.57,2311.97 3760.5,2313.5C 3759.09,2313.03 3758.43,2312.03 3758.5,2310.5 Z"/></g>
<g><path style="opacity:1" fill="#9093ab" d="M 2555.5,2375.5 C 2555.57,2377.03 2554.91,2378.03 2553.5,2378.5C 2553.43,2376.97 2554.09,2375.97 2555.5,2375.5 Z"/></g>
<g><path style="opacity:1" fill="#9092ab" d="M 2517.5,2441.5 C 2517.57,2443.03 2516.91,2444.03 2515.5,2444.5C 2515.43,2442.97 2516.09,2441.97 2517.5,2441.5 Z"/></g>
<g><path style="opacity:1" fill="#5a6486" d="M 2936.5,2500.5 C 2913.9,2499.93 2891.56,2501.93 2869.5,2506.5C 2869.61,2505.88 2869.94,2505.38 2870.5,2505C 2892.31,2499.77 2914.31,2498.27 2936.5,2500.5 Z"/></g>
<g><path style="opacity:1" fill="#183862" d="M 2936.5,2500.5 C 2941.03,2500.18 2945.37,2500.52 2949.5,2501.5C 2957.1,2503.02 2964.77,2504.35 2972.5,2505.5C 2973.21,2506.4 2974.21,2506.74 2975.5,2506.5C 2979.85,2509.73 2984.85,2511.39 2990.5,2511.5C 3040.67,2530.83 3078.5,2564.17 3104,2611.5C 3107.06,2617.61 3109.56,2623.94 3111.5,2630.5C 3111.8,2632.4 3112.46,2634.07 3113.5,2635.5C 3114.46,2637.3 3115.12,2639.3 3115.5,2641.5C 3115.26,2643.9 3115.93,2645.9 3117.5,2647.5C 3121.53,2659.52 3123.86,2671.85 3124.5,2684.5C 3125.34,2698.15 3125.67,2711.82 3125.5,2725.5C 3123.89,2739.89 3121.22,2754.23 3117.5,2768.5C 3115.76,2770.39 3114.76,2772.73 3114.5,2775.5C 3094.22,2832.12 3056.55,2872.79 3001.5,2897.5C 2999.03,2897.75 2997.03,2898.75 2995.5,2900.5C 2988.36,2902.69 2981.36,2905.03 2974.5,2907.5C 2966.35,2908.61 2958.35,2910.28 2950.5,2912.5C 2946.79,2912.42 2943.12,2912.76 2939.5,2913.5C 2925.15,2913.68 2910.82,2913.35 2896.5,2912.5C 2895.17,2912.5 2893.83,2912.5 2892.5,2912.5C 2888.46,2910.76 2884.12,2909.76 2879.5,2909.5C 2822.92,2896.62 2778.92,2865.62 2747.5,2816.5C 2731.21,2789.12 2721.54,2759.46 2718.5,2727.5C 2718.17,2708.45 2718.83,2689.45 2720.5,2670.5C 2720.4,2667.76 2720.73,2665.1 2721.5,2662.5C 2723.07,2660.9 2723.74,2658.9 2723.5,2656.5C 2736.77,2602.69 2766.77,2560.52 2813.5,2530C 2819.85,2525.8 2826.51,2522.3 2833.5,2519.5C 2837.75,2518.99 2841.42,2517.32 2844.5,2514.5C 2847.48,2514.82 2849.81,2513.82 2851.5,2511.5C 2857.14,2508.94 2863.14,2507.27 2869.5,2506.5C 2891.56,2501.93 2913.9,2499.93 2936.5,2500.5 Z"/></g>
<g><path style="opacity:1" fill="#a5a7ba" d="M 2949.5,2501.5 C 2957.55,2501.45 2965.22,2502.79 2972.5,2505.5C 2964.77,2504.35 2957.1,2503.02 2949.5,2501.5 Z"/></g>
<g><path style="opacity:1" fill="#5c6788" d="M 2975.5,2506.5 C 2980.67,2507.93 2985.67,2509.6 2990.5,2511.5C 2984.85,2511.39 2979.85,2509.73 2975.5,2506.5 Z"/></g>
<g><path style="opacity:1" fill="#717795" d="M 2851.5,2511.5 C 2849.81,2513.82 2847.48,2514.82 2844.5,2514.5C 2846.6,2513.09 2848.94,2512.09 2851.5,2511.5 Z"/></g>
<g><path style="opacity:1" fill="#566285" d="M 2844.5,2514.5 C 2841.42,2517.32 2837.75,2518.99 2833.5,2519.5C 2836.85,2517.27 2840.52,2515.6 2844.5,2514.5 Z"/></g>
<g><path style="opacity:1" fill="#173862" d="M 6964.5,2538.5 C 7054.17,2538.5 7143.83,2538.5 7233.5,2538.5C 7233.17,2673.83 7233.5,2809.17 7234.5,2944.5C 7235.11,2944.38 7235.44,2944.04 7235.5,2943.5C 7293.7,2864.34 7372.03,2830.17 7470.5,2841C 7574.85,2855.68 7638.68,2914.51 7662,3017.5C 7667.23,3041.91 7670.56,3066.58 7672,3091.5C 7672.5,3209.17 7672.67,3326.83 7672.5,3444.5C 7705.48,3450.96 7738.48,3457.3 7771.5,3463.5C 7771.5,3497.5 7771.5,3531.5 7771.5,3565.5C 7652.17,3565.5 7532.83,3565.5 7413.5,3565.5C 7413.5,3531.5 7413.5,3497.5 7413.5,3463.5C 7444.47,3457.01 7475.47,3450.67 7506.5,3444.5C 7506.67,3327.83 7506.5,3211.17 7506,3094.5C 7504.42,3066.42 7496.42,3040.42 7482,3016.5C 7461.8,2990.14 7434.97,2975.31 7401.5,2972C 7331.07,2964.23 7275.57,2989.06 7235,3046.5C 7234.5,3179.17 7234.33,3311.83 7234.5,3444.5C 7265.84,3450.84 7297.18,3457.17 7328.5,3463.5C 7328.5,3497.5 7328.5,3531.5 7328.5,3565.5C 7209.17,3565.5 7089.83,3565.5 6970.5,3565.5C 6970.5,3531.5 6970.5,3497.5 6970.5,3463.5C 7003.12,3456.91 7035.79,3450.58 7068.5,3444.5C 7068.5,3182.83 7068.5,2921.17 7068.5,2659.5C 7033.83,2653.17 6999.17,2646.83 6964.5,2640.5C 6964.5,2606.5 6964.5,2572.5 6964.5,2538.5 Z"/></g>
<g><path style="opacity:1" fill="#35496f" d="M 6964.5,2538.5 C 7054.33,2537.5 7144.33,2537.17 7234.5,2537.5C 7234.17,2673 7234.5,2808.33 7235.5,2943.5C 7235.44,2944.04 7235.11,2944.38 7234.5,2944.5C 7233.5,2809.17 7233.17,2673.83 7233.5,2538.5C 7143.83,2538.5 7054.17,2538.5 6964.5,2538.5 Z"/></g>
<g><path style="opacity:1" fill="#676e8d" d="M 3906.5,2589.5 C 3907.4,2590.21 3907.74,2591.21 3907.5,2592.5C 3899.65,2592.83 3891.98,2592.49 3884.5,2591.5C 3892.24,2592.13 3899.58,2591.46 3906.5,2589.5 Z"/></g>
<g><path style="opacity:1" fill="#173862" d="M 4926.5,3565.5 C 4926.17,3531.43 4926.51,3497.43 4927.5,3463.5C 4961.76,3456.78 4996.09,3450.45 5030.5,3444.5C 5030.5,3207.5 5030.5,2970.5 5030.5,2733.5C 4966.17,2733.5 4901.83,2733.5 4837.5,2733.5C 4832.83,2774.5 4828.17,2815.5 4823.5,2856.5C 4781.83,2856.5 4740.17,2856.5 4698.5,2856.5C 4698.5,2773.17 4698.5,2689.83 4698.5,2606.5C 4975.5,2606.5 5252.5,2606.5 5529.5,2606.5C 5529.5,2689.83 5529.5,2773.17 5529.5,2856.5C 5487.83,2856.67 5446.17,2856.5 5404.5,2856C 5399.65,2815.18 5394.65,2774.35 5389.5,2733.5C 5325.17,2733.5 5260.83,2733.5 5196.5,2733.5C 5196.5,2970.5 5196.5,3207.5 5196.5,3444.5C 5231.48,3450.94 5266.48,3457.27 5301.5,3463.5C 5301.5,3497.5 5301.5,3531.5 5301.5,3565.5C 5176.5,3565.5 5051.5,3565.5 4926.5,3565.5 Z"/></g>
<g><path style="opacity:1" fill="#149bd7" d="M 8497.5,2745.5 C 8385.67,2744.5 8273.67,2744.17 8161.5,2744.5C 8161.17,2843 8161.5,2941.33 8162.5,3039.5C 8276.17,3039.5 8389.83,3039.5 8503.5,3039.5C 8503.5,3082.83 8503.5,3126.17 8503.5,3169.5C 8389.5,3169.5 8275.5,3169.5 8161.5,3169.5C 8161.5,3266.5 8161.5,3363.5 8161.5,3460.5C 8196.48,3466.96 8231.48,3473.3 8266.5,3479.5C 8266.5,3513.83 8266.5,3548.17 8266.5,3582.5C 8141.17,3582.5 8015.83,3582.5 7890.5,3582.5C 7890.33,3548.5 7890.5,3514.5 7891,3480.5C 7925.65,3473.03 7960.48,3466.36 7995.5,3460.5C 7995.83,3219.83 7995.5,2979.17 7994.5,2738.5C 7960.11,2732.09 7925.78,2725.42 7891.5,2718.5C 7890.5,2684.17 7890.17,2649.84 7890.5,2615.5C 8139.17,2615.5 8387.83,2615.5 8636.5,2615.5C 8636.5,2699.17 8636.5,2782.83 8636.5,2866.5C 8593.5,2866.5 8550.5,2866.5 8507.5,2866.5C 8503.93,2826.19 8500.6,2785.86 8497.5,2745.5 Z"/></g>
<g><path style="opacity:1" fill="#fdfdfe" d="M 2990.5,2675.5 C 2990.76,2678.27 2991.76,2680.61 2993.5,2682.5C 2993.83,2683.83 2994.17,2685.17 2994.5,2686.5C 2994.41,2689.15 2995.08,2691.49 2996.5,2693.5C 2996.67,2703.17 2996.5,2712.84 2996,2722.5C 2994.87,2725.45 2994.04,2728.45 2993.5,2731.5C 2991.76,2733.39 2990.76,2735.73 2990.5,2738.5C 2990.5,2738.83 2990.5,2739.17 2990.5,2739.5C 2988.75,2741.03 2987.75,2743.03 2987.5,2745.5C 2969.06,2776.21 2942.06,2788.88 2906.5,2783.5C 2902.17,2782.43 2897.83,2781.09 2893.5,2779.5C 2866.75,2766.76 2851.09,2745.76 2846.5,2716.5C 2846.5,2710.83 2846.5,2705.17 2846.5,2699.5C 2849.4,2668.95 2864.73,2647.28 2892.5,2634.5C 2894.4,2634.2 2896.07,2633.54 2897.5,2632.5C 2924.31,2624.78 2948.64,2629.62 2970.5,2647C 2979.78,2654.76 2986.44,2664.26 2990.5,2675.5 Z"/></g>
<g><path style="opacity:1" fill="#9093ab" d="M 2897.5,2632.5 C 2896.07,2633.54 2894.4,2634.2 2892.5,2634.5C 2893.64,2632.79 2895.3,2632.12 2897.5,2632.5 Z"/></g>
<g><path style="opacity:1" fill="#9194ac" d="M 3111.5,2630.5 C 3113.21,2631.64 3113.88,2633.3 3113.5,2635.5C 3112.46,2634.07 3111.8,2632.4 3111.5,2630.5 Z"/></g>
<g><path style="opacity:1" fill="#6d7492" d="M 3115.5,2641.5 C 3117.07,2643.1 3117.74,2645.1 3117.5,2647.5C 3115.93,2645.9 3115.26,2643.9 3115.5,2641.5 Z"/></g>
<g><path style="opacity:1" fill="#787c99" d="M 3934.5,2652.5 C 3768.83,2652.5 3603.17,2652.5 3437.5,2652.5C 3437.5,2693.17 3437.5,2733.83 3437.5,2774.5C 3436.5,2733.67 3436.17,2692.67 3436.5,2651.5C 3602.67,2651.17 3768.67,2651.5 3934.5,2652.5 Z"/></g>
<g><path style="opacity:1" fill="#173862" d="M 3934.5,2652.5 C 3958.24,2692.3 3981.74,2732.3 4005,2772.5C 4005.49,2773.79 4005.66,2775.13 4005.5,2776.5C 3996.41,2780.37 3987.41,2784.54 3978.5,2789C 3954.9,2802.3 3930.9,2814.8 3906.5,2826.5C 3893.46,2811.46 3880.8,2796.13 3868.5,2780.5C 3725.33,2779.5 3582,2779.17 3438.5,2779.5C 3438.78,2777.59 3438.45,2775.92 3437.5,2774.5C 3437.5,2733.83 3437.5,2693.17 3437.5,2652.5C 3603.17,2652.5 3768.83,2652.5 3934.5,2652.5 Z"/></g>
<g><path style="opacity:1" fill="#707594" d="M 2723.5,2656.5 C 2723.74,2658.9 2723.07,2660.9 2721.5,2662.5C 2721.26,2660.1 2721.93,2658.1 2723.5,2656.5 Z"/></g>
<g><path style="opacity:1" fill="#9ea0b5" d="M 2990.5,2675.5 C 2992.24,2677.39 2993.24,2679.73 2993.5,2682.5C 2991.76,2680.61 2990.76,2678.27 2990.5,2675.5 Z"/></g>
<g><path style="opacity:1" fill="#757b98" d="M 2994.5,2686.5 C 2995.92,2688.51 2996.59,2690.85 2996.5,2693.5C 2995.08,2691.49 2994.41,2689.15 2994.5,2686.5 Z"/></g>
<g><path style="opacity:1" fill="#8b8da7" d="M 3124.5,2684.5 C 3125.29,2685.61 3125.79,2686.94 3126,2688.5C 3126.83,2701.01 3126.66,2713.34 3125.5,2725.5C 3125.67,2711.82 3125.34,2698.15 3124.5,2684.5 Z"/></g>
<g><path style="opacity:1" fill="#3d4f74" d="M 2720.5,2670.5 C 2718.83,2689.45 2718.17,2708.45 2718.5,2727.5C 2717.34,2713.67 2717.17,2699.67 2718,2685.5C 2718.09,2680.23 2718.92,2675.23 2720.5,2670.5 Z"/></g>
<g><path style="opacity:1" fill="#4b597d" d="M 2846.5,2699.5 C 2846.5,2705.17 2846.5,2710.83 2846.5,2716.5C 2844.98,2713.47 2844.31,2710.14 2844.5,2706.5C 2844.53,2703.73 2845.2,2701.4 2846.5,2699.5 Z"/></g>
<g><path style="opacity:1" fill="#9396ad" d="M 2993.5,2731.5 C 2993.24,2734.27 2992.24,2736.61 2990.5,2738.5C 2990.76,2735.73 2991.76,2733.39 2993.5,2731.5 Z"/></g>
<g><path style="opacity:1" fill="#8085a0" d="M 2990.5,2739.5 C 2990.25,2741.97 2989.25,2743.97 2987.5,2745.5C 2987.75,2743.03 2988.75,2741.03 2990.5,2739.5 Z"/></g>
<g><path style="opacity:1" fill="#b1d0ed" d="M 8497.5,2745.5 C 8385.83,2745.5 8274.17,2745.5 8162.5,2745.5C 8162.5,2843.5 8162.5,2941.5 8162.5,3039.5C 8161.5,2941.33 8161.17,2843 8161.5,2744.5C 8273.67,2744.17 8385.67,2744.5 8497.5,2745.5 Z"/></g>
<g><path style="opacity:1" fill="#b0b2c3" d="M 3117.5,2768.5 C 3117.36,2771.39 3116.36,2773.72 3114.5,2775.5C 3114.76,2772.73 3115.76,2770.39 3117.5,2768.5 Z"/></g>
<g><path style="opacity:1" fill="#7b7f9b" d="M 3437.5,2774.5 C 3438.45,2775.92 3438.78,2777.59 3438.5,2779.5C 3582,2779.17 3725.33,2779.5 3868.5,2780.5C 3724.83,2780.5 3581.17,2780.5 3437.5,2780.5C 3437.5,2778.5 3437.5,2776.5 3437.5,2774.5 Z"/></g>
<g><path style="opacity:1" fill="#676f8f" d="M 2893.5,2779.5 C 2897.83,2781.09 2902.17,2782.43 2906.5,2783.5C 2901.49,2783.91 2897.16,2782.58 2893.5,2779.5 Z"/></g>
<g><path style="opacity:1" fill="#636b8b" d="M 2111.5,2816.5 C 2104.33,2817.36 2097,2818.02 2089.5,2818.5C 2089.61,2817.88 2089.94,2817.38 2090.5,2817C 2097.49,2816.5 2104.49,2816.33 2111.5,2816.5 Z"/></g>
<g><path style="opacity:1" fill="#646d8d" d="M 4100.5,2818.5 C 4078.13,2816.96 4055.8,2817.29 4033.5,2819.5C 4037.2,2817.91 4041.2,2817.08 4045.5,2817C 4059.81,2815.54 4074.14,2815.2 4088.5,2816C 4092.8,2816.08 4096.8,2816.91 4100.5,2818.5 Z"/></g>
<g><path style="opacity:1" fill="#183862" d="M 2111.5,2816.5 C 2124.22,2816.27 2136.89,2816.94 2149.5,2818.5C 2153.2,2820.25 2157.2,2821.25 2161.5,2821.5C 2219.04,2835.37 2263.21,2867.71 2294,2918.5C 2297.66,2925.33 2300.83,2932.33 2303.5,2939.5C 2303.95,2943.81 2305.62,2947.48 2308.5,2950.5C 2309.72,2952.28 2310.39,2954.28 2310.5,2956.5C 2310.53,2959.92 2311.53,2962.92 2313.5,2965.5C 2314.17,2967.5 2314.83,2969.5 2315.5,2971.5C 2315.16,2975.16 2315.83,2978.49 2317.5,2981.5C 2317.5,2982.17 2317.5,2982.83 2317.5,2983.5C 2317.5,2990.45 2318.5,2997.11 2320.5,3003.5C 2325.51,3081.66 2297.17,3144.83 2235.5,3193C 2208.24,3211.81 2178.24,3223.65 2145.5,3228.5C 2141.88,3228.32 2138.54,3228.99 2135.5,3230.5C 2127.5,3230.5 2119.5,3230.5 2111.5,3230.5C 2099.36,3228.65 2087.03,3227.32 2074.5,3226.5C 2069.33,3225.67 2064.33,3224.33 2059.5,3222.5C 2055.81,3220.9 2051.97,3219.23 2048,3217.5C 2045.86,3216.92 2043.7,3216.59 2041.5,3216.5C 2040.83,3216.17 2040.17,3215.83 2039.5,3215.5C 2037.97,3213.75 2035.97,3212.75 2033.5,3212.5C 2004.29,3199.48 1979.46,3180.48 1959,3155.5C 1936.71,3127.48 1922.21,3095.81 1915.5,3060.5C 1915.19,3055.65 1914.52,3050.98 1913.5,3046.5C 1913.5,3031.17 1913.5,3015.83 1913.5,3000.5C 1915.05,2996.43 1915.72,2992.1 1915.5,2987.5C 1915.5,2986.5 1915.5,2985.5 1915.5,2984.5C 1917.07,2982.9 1917.74,2980.9 1917.5,2978.5C 1930.82,2919.97 1963.15,2874.8 2014.5,2843C 2018.19,2840.49 2022.19,2838.66 2026.5,2837.5C 2028.97,2837.25 2030.97,2836.25 2032.5,2834.5C 2043.46,2828.53 2055.12,2824.53 2067.5,2822.5C 2071.08,2821.99 2074.42,2820.99 2077.5,2819.5C 2081.47,2818.84 2085.47,2818.5 2089.5,2818.5C 2097,2818.02 2104.33,2817.36 2111.5,2816.5 Z"/></g>
<g><path style="opacity:1" fill="#183862" d="M 4100.5,2818.5 C 4112.85,2819.77 4124.85,2822.44 4136.5,2826.5C 4138.76,2828.38 4141.42,2829.38 4144.5,2829.5C 4197.15,2850.5 4235.15,2886.83 4258.5,2938.5C 4258.75,2940.97 4259.75,2942.97 4261.5,2944.5C 4268.64,2961.77 4273.31,2979.77 4275.5,2998.5C 4275.73,3015.85 4275.4,3033.19 4274.5,3050.5C 4273.61,3061.07 4271.61,3071.4 4268.5,3081.5C 4267.88,3081.61 4267.38,3081.94 4267,3082.5C 4266.47,3085.93 4265.63,3089.26 4264.5,3092.5C 4242.37,3153.3 4201.04,3195.3 4140.5,3218.5C 4137.73,3218.76 4135.39,3219.76 4133.5,3221.5C 4132.83,3221.5 4132.17,3221.5 4131.5,3221.5C 4124.87,3222.74 4118.53,3224.41 4112.5,3226.5C 4094.13,3229.96 4075.47,3231.29 4056.5,3230.5C 4051.4,3229.04 4046.07,3228.38 4040.5,3228.5C 4034.21,3228.01 4028.21,3226.68 4022.5,3224.5C 4020.49,3223.08 4018.15,3222.41 4015.5,3222.5C 4005.99,3220.22 3996.99,3216.88 3988.5,3212.5C 3986.97,3210.75 3984.97,3209.75 3982.5,3209.5C 3929.45,3182.44 3894.11,3140.44 3876.5,3083.5C 3875.37,3079.35 3874.04,3075.35 3872.5,3071.5C 3872.04,3067.34 3871.38,3063.34 3870.5,3059.5C 3870.72,3054.9 3870.05,3050.57 3868.5,3046.5C 3868.81,3043.61 3868.47,3040.95 3867.5,3038.5C 3867.25,3026.8 3867.59,3015.14 3868.5,3003.5C 3868.5,3002.17 3868.5,3000.83 3868.5,2999.5C 3870.36,2992.03 3871.69,2984.36 3872.5,2976.5C 3873.79,2970.02 3875.46,2963.69 3877.5,2957.5C 3880.86,2953.93 3882.53,2949.6 3882.5,2944.5C 3904.85,2891.15 3942.52,2853.15 3995.5,2830.5C 3998.72,2830.65 4001.38,2829.65 4003.5,2827.5C 4011.74,2825.37 4020.07,2823.54 4028.5,2822C 4029.57,2821.15 4030.57,2820.31 4031.5,2819.5C 4032.17,2819.5 4032.83,2819.5 4033.5,2819.5C 4055.8,2817.29 4078.13,2816.96 4100.5,2818.5 Z"/></g>
<g><path style="opacity:1" fill="#868aa3" d="M 2149.5,2818.5 C 2153.84,2818.58 2157.84,2819.58 2161.5,2821.5C 2157.2,2821.25 2153.2,2820.25 2149.5,2818.5 Z"/></g>
<g><path style="opacity:1" fill="#9c9eb4" d="M 2077.5,2819.5 C 2074.42,2820.99 2071.08,2821.99 2067.5,2822.5C 2067.61,2821.88 2067.94,2821.38 2068.5,2821C 2071.48,2820.3 2074.48,2819.8 2077.5,2819.5 Z"/></g>
<g><path style="opacity:1" fill="#586385" d="M 4031.5,2819.5 C 4030.57,2820.31 4029.57,2821.15 4028.5,2822C 4020.07,2823.54 4011.74,2825.37 4003.5,2827.5C 4012.5,2823.99 4021.84,2821.32 4031.5,2819.5 Z"/></g>
<g><path style="opacity:1" fill="#707795" d="M 4136.5,2826.5 C 4139.58,2826.62 4142.24,2827.62 4144.5,2829.5C 4141.42,2829.38 4138.76,2828.38 4136.5,2826.5 Z"/></g>
<g><path style="opacity:1" fill="#717795" d="M 4003.5,2827.5 C 4001.38,2829.65 3998.72,2830.65 3995.5,2830.5C 3997.94,2829.13 4000.6,2828.13 4003.5,2827.5 Z"/></g>
<g><path style="opacity:1" fill="#6f7594" d="M 2032.5,2834.5 C 2030.97,2836.25 2028.97,2837.25 2026.5,2837.5C 2028.03,2835.75 2030.03,2834.75 2032.5,2834.5 Z"/></g>
<g><path style="opacity:1" fill="#173862" d="M 6168.5,3136.5 C 6168.5,3175.83 6168.5,3215.17 6168.5,3254.5C 6022.67,3254.17 5877,3254.5 5731.5,3255.5C 5731.27,3299.56 5742.43,3340.56 5765,3378.5C 5799.53,3428.35 5847.36,3452.68 5908.5,3451.5C 5978.64,3451.56 6042.31,3431.56 6099.5,3391.5C 6117.46,3425.26 6134.8,3459.43 6151.5,3494C 6150.22,3496.28 6148.56,3498.28 6146.5,3500C 6070.41,3555.3 5985.08,3581.8 5890.5,3579.5C 5779.17,3580.41 5690.33,3536.75 5624,3448.5C 5589.5,3397.03 5568.84,3340.36 5562,3278.5C 5559.19,3237.85 5558.85,3197.18 5561,3156.5C 5567.48,3074 5597.14,3001.33 5650,2938.5C 5717.11,2865.89 5800.28,2833.06 5899.5,2840C 5948.12,2842.24 5993.79,2854.9 6036.5,2878C 6092.98,2913.52 6131.15,2963.35 6151,3027.5C 6161.91,3063.02 6167.74,3099.36 6168.5,3136.5 Z"/></g>
<g><path style="opacity:1" fill="#173862" d="M 6575.5,2839.5 C 6668.64,2832.61 6753.97,2854.78 6831.5,2906C 6846.54,2916.7 6860.71,2928.54 6874,2941.5C 6874.5,3005.17 6874.67,3068.83 6874.5,3132.5C 6832.17,3132.5 6789.83,3132.5 6747.5,3132.5C 6739.91,3090.06 6731.74,3047.72 6723,3005.5C 6692.18,2977.19 6655.68,2963.53 6613.5,2964.5C 6564.64,2964.19 6524.8,2982.85 6494,3020.5C 6469.32,3053.85 6453.99,3091.18 6448,3132.5C 6446.19,3143.77 6444.85,3155.11 6444,3166.5C 6442.89,3201.54 6443.55,3236.54 6446,3271.5C 6449.54,3315.11 6463.2,3355.11 6487,3391.5C 6525.72,3441.08 6576.22,3459.92 6638.5,3448C 6686.36,3438.14 6718.86,3410.31 6736,3364.5C 6739.3,3354.96 6742.13,3345.29 6744.5,3335.5C 6792.5,3334.33 6840.5,3334.17 6888.5,3335C 6889.85,3336.57 6890.51,3338.41 6890.5,3340.5C 6884.62,3390.31 6867.79,3435.98 6840,3477.5C 6799.5,3529.91 6746.33,3561.74 6680.5,3573C 6619.2,3583.96 6558.54,3581.29 6498.5,3565C 6406.89,3533.72 6342.72,3473.22 6306,3383.5C 6284.3,3326.35 6274.47,3267.18 6276.5,3206C 6274.21,3130.98 6290.71,3060.48 6326,2994.5C 6382.28,2900.14 6465.44,2848.48 6575.5,2839.5 Z"/></g>
<g><path style="opacity:1" fill="#159bd7" d="M 8978.5,2850.5 C 9030.23,2847.42 9080.57,2854.25 9129.5,2871C 9208.14,2902.64 9264.98,2957.14 9300,3034.5C 9320.7,3082.35 9332.37,3132.35 9335,3184.5C 9338.77,3245.12 9333.1,3304.79 9318,3363.5C 9299.2,3429.98 9263.7,3485.48 9211.5,3530C 9156.94,3572.19 9094.94,3594.19 9025.5,3596C 8969.22,3599.49 8915.22,3590.15 8863.5,3568C 8787.94,3531.1 8735.44,3473.27 8706,3394.5C 8686.08,3338.45 8676.58,3280.62 8677.5,3221C 8676.15,3154.25 8688.98,3090.41 8716,3029.5C 8770.01,2921.03 8857.51,2861.37 8978.5,2850.5 Z"/></g>
<g><path style="opacity:1" fill="#149bd7" d="M 9790.5,3479.5 C 9792.48,3513.61 9793.15,3547.94 9792.5,3582.5C 9671.5,3582.5 9550.5,3582.5 9429.5,3582.5C 9429.5,3548.17 9429.5,3513.83 9429.5,3479.5C 9462.48,3473.04 9495.48,3466.7 9528.5,3460.5C 9528.5,3302.5 9528.5,3144.5 9528.5,2986.5C 9493.79,2980.43 9459.13,2974.09 9424.5,2967.5C 9424.5,2932.83 9424.5,2898.17 9424.5,2863.5C 9510.17,2863.5 9595.83,2863.5 9681.5,2863.5C 9685.05,2898.45 9688.22,2933.45 9691,2968.5C 9706.15,2937.34 9726.65,2910.17 9752.5,2887C 9791.24,2856.31 9835.24,2844.64 9884.5,2852C 9899.95,2854.33 9915.29,2857.16 9930.5,2860.5C 9923.76,2912.1 9917.43,2963.77 9911.5,3015.5C 9877.67,3013.86 9843.83,3012.19 9810,3010.5C 9780.52,3009 9754.69,3017.84 9732.5,3037C 9717.23,3050.74 9704.73,3066.58 9695,3084.5C 9694.5,3209.83 9694.33,3335.17 9694.5,3460.5C 9726.56,3466.58 9758.56,3472.91 9790.5,3479.5 Z"/></g>
<g><path style="opacity:1" fill="#149bd7" d="M 11258.5,2850.5 C 11306.9,2846.75 11352.5,2855.91 11395.5,2878C 11433.6,2901.7 11460.8,2934.53 11477,2976.5C 11539.8,2873.07 11630.9,2833.23 11750.5,2857C 11814.3,2873.83 11860.5,2912 11889,2971.5C 11908.4,3016.82 11918.7,3064.15 11920,3113.5C 11920.5,3229.17 11920.7,3344.83 11920.5,3460.5C 11953.8,3466.72 11986.9,3473.39 12020,3480.5C 12020.5,3514.5 12020.7,3548.5 12020.5,3582.5C 11900.5,3582.5 11780.5,3582.5 11660.5,3582.5C 11660.3,3548.5 11660.5,3514.5 11661,3480.5C 11692,3473.13 11723.2,3466.47 11754.5,3460.5C 11754.7,3346.5 11754.5,3232.5 11754,3118.5C 11752.8,3093.81 11748.2,3069.81 11740,3046.5C 11724,3009.54 11695.8,2988.71 11655.5,2984C 11589,2977.47 11541.5,3004.31 11513,3064.5C 11507.3,3077.37 11502.9,3090.7 11500,3104.5C 11499.5,3223.17 11499.3,3341.83 11499.5,3460.5C 11529.5,3466.84 11559.5,3473.17 11589.5,3479.5C 11589.5,3513.83 11589.5,3548.17 11589.5,3582.5C 11474.2,3582.5 11358.8,3582.5 11243.5,3582.5C 11243.3,3548.5 11243.5,3514.5 11244,3480.5C 11273.9,3473.01 11304.1,3466.34 11334.5,3460.5C 11334.7,3348.83 11334.5,3237.17 11334,3125.5C 11333.3,3097.1 11327.7,3069.77 11317,3043.5C 11300.1,3008.59 11272.2,2988.76 11233.5,2984C 11197.9,2979.58 11164.3,2985.58 11132.5,3002C 11109.5,3015.98 11091.7,3034.82 11079,3058.5C 11078.5,3192.5 11078.3,3326.5 11078.5,3460.5C 11109.5,3466.96 11140.5,3473.3 11171.5,3479.5C 11171.5,3513.83 11171.5,3548.17 11171.5,3582.5C 11052.2,3582.5 10932.8,3582.5 10813.5,3582.5C 10813.5,3548.17 10813.5,3513.83 10813.5,3479.5C 10846.8,3472.91 10880.1,3466.58 10913.5,3460.5C 10913.5,3302.5 10913.5,3144.5 10913.5,2986.5C 10878.5,2980.07 10843.5,2973.74 10808.5,2967.5C 10808.5,2932.83 10808.5,2898.17 10808.5,2863.5C 10894.2,2863.5 10979.8,2863.5 11065.5,2863.5C 11068.1,2894.51 11070.9,2925.51 11074,2956.5C 11119,2892.89 11180.5,2857.55 11258.5,2850.5 Z"/></g>
<g><path style="opacity:1" fill="#70b1e1" d="M 10660.5,2864.5 C 10575.5,2864.5 10490.5,2864.5 10405.5,2864.5C 10405.2,2898.91 10405.5,2933.24 10406.5,2967.5C 10404.5,2933.18 10403.8,2898.52 10404.5,2863.5C 10490,2863.17 10575.3,2863.5 10660.5,2864.5 Z"/></g>
<g><path style="opacity:1" fill="#139bd7" d="M 10222.5,3308.5 C 10222.4,3343.35 10228.6,3377.02 10241,3409.5C 10256,3438.78 10279.8,3456.28 10312.5,3462C 10346.2,3466.81 10379.2,3463.81 10411.5,3453C 10447.6,3439.04 10475.1,3415.21 10494,3381.5C 10494.5,3249.83 10494.7,3118.17 10494.5,2986.5C 10465.2,2980.17 10435.8,2973.83 10406.5,2967.5C 10405.5,2933.24 10405.2,2898.91 10405.5,2864.5C 10490.5,2864.5 10575.5,2864.5 10660.5,2864.5C 10660.5,3063.17 10660.5,3261.83 10660.5,3460.5C 10688.5,3466.83 10716.5,3473.17 10744.5,3479.5C 10744.5,3513.83 10744.5,3548.17 10744.5,3582.5C 10667.5,3582.5 10590.5,3582.5 10513.5,3582.5C 10510.1,3550.12 10506.2,3517.79 10502,3485.5C 10459.7,3551.74 10399.2,3588.57 10320.5,3596C 10269.4,3600.54 10221.1,3591.21 10175.5,3568C 10129.6,3541.71 10097.7,3503.54 10080,3453.5C 10065.8,3412.03 10058.1,3369.37 10057,3325.5C 10056.5,3212.5 10056.3,3099.5 10056.5,2986.5C 10030.1,2980.64 10003.7,2974.31 9977.5,2967.5C 9976.51,2933.24 9976.17,2898.91 9976.5,2864.5C 10058.2,2864.5 10139.8,2864.5 10221.5,2864.5C 10221.2,3012.67 10221.5,3160.67 10222.5,3308.5 Z"/></g>
<g><path style="opacity:1" fill="#69aee0" d="M 10222.5,3308.5 C 10221.5,3160.67 10221.2,3012.67 10221.5,2864.5C 10139.8,2864.5 10058.2,2864.5 9976.5,2864.5C 9976.17,2898.91 9976.51,2933.24 9977.5,2967.5C 9975.51,2933.18 9974.84,2898.52 9975.5,2863.5C 10057.8,2863.5 10140.2,2863.5 10222.5,2863.5C 10222.5,3011.83 10222.5,3160.17 10222.5,3308.5 Z"/></g>
<g><path style="opacity:1" fill="#7e829e" d="M 3001.5,2897.5 C 2999.97,2899.25 2997.97,2900.25 2995.5,2900.5C 2997.03,2898.75 2999.03,2897.75 3001.5,2897.5 Z"/></g>
<g><path style="opacity:1" fill="#9fa1b6" d="M 2974.5,2907.5 C 2966.96,2910.43 2958.96,2912.1 2950.5,2912.5C 2958.35,2910.28 2966.35,2908.61 2974.5,2907.5 Z"/></g>
<g><path style="opacity:1" fill="#8c8fa8" d="M 2879.5,2909.5 C 2884.12,2909.76 2888.46,2910.76 2892.5,2912.5C 2888.84,2912.05 2885.17,2911.55 2881.5,2911C 2880.58,2910.72 2879.92,2910.22 2879.5,2909.5 Z"/></g>
<g><path style="opacity:1" fill="#183862" d="M 2836.5,3030.5 C 2834.9,3031.29 2834.23,3032.62 2834.5,3034.5C 2827.36,3048.78 2819.69,3062.78 2811.5,3076.5C 2810.09,3076.97 2809.43,3077.97 2809.5,3079.5C 2758.18,3173.78 2706.84,3268.11 2655.5,3362.5C 2654.09,3362.97 2653.43,3363.97 2653.5,3365.5C 2619.84,3426.14 2586.68,3487.14 2554,3548.5C 2552.5,3552 2550.33,3555 2547.5,3557.5C 2517.43,3514.38 2487.6,3471.04 2458,3427.5C 2458.09,3424.3 2459.09,3421.3 2461,3418.5C 2503.52,3342.78 2546.02,3267.12 2588.5,3191.5C 2589.91,3191.03 2590.57,3190.03 2590.5,3188.5C 2633.66,3110.84 2676.83,3033.17 2720,2955.5C 2728.16,2940.51 2736.83,2925.84 2746,2911.5C 2784.12,2936.8 2822.28,2961.97 2860.5,2987C 2852.36,3001.45 2844.36,3015.95 2836.5,3030.5 Z"/></g>
<g><path style="opacity:1" fill="#9799b0" d="M 2896.5,2912.5 C 2910.82,2913.35 2925.15,2913.68 2939.5,2913.5C 2926.67,2914.66 2913.67,2914.83 2900.5,2914C 2898.94,2913.79 2897.61,2913.29 2896.5,2912.5 Z"/></g>
<g><path style="opacity:1" fill="#8387a2" d="M 4258.5,2938.5 C 4260.25,2940.03 4261.25,2942.03 4261.5,2944.5C 4259.75,2942.97 4258.75,2940.97 4258.5,2938.5 Z"/></g>
<g><path style="opacity:1" fill="#757b98" d="M 2133.5,2946.5 C 2123.82,2945.37 2114.15,2945.37 2104.5,2946.5C 2104.92,2945.78 2105.58,2945.28 2106.5,2945C 2110,2944.83 2113.5,2944.67 2117,2944.5C 2122.74,2944.36 2128.24,2945.02 2133.5,2946.5 Z"/></g>
<g><path style="opacity:1" fill="#8d90a9" d="M 4087.5,2946.5 C 4077.83,2945.2 4068.16,2945.2 4058.5,2946.5C 4058.61,2945.88 4058.94,2945.38 4059.5,2945C 4063.5,2944.83 4067.5,2944.67 4071.5,2944.5C 4077.1,2944.28 4082.43,2944.94 4087.5,2946.5 Z"/></g>
<g><path style="opacity:1" fill="#fdfdfe" d="M 2133.5,2946.5 C 2154.42,2953.23 2170.92,2965.9 2183,2984.5C 2185.86,2989.91 2188.02,2995.58 2189.5,3001.5C 2189.95,3005.75 2190.95,3009.75 2192.5,3013.5C 2192.5,3014.83 2192.5,3016.17 2192.5,3017.5C 2192.99,3027.05 2191.99,3036.38 2189.5,3045.5C 2182.35,3067.97 2168.35,3084.64 2147.5,3095.5C 2145.3,3095.12 2143.64,3095.79 2142.5,3097.5C 2101.74,3108.64 2070.91,3095.97 2050,3059.5C 2047.05,3055.14 2045.22,3050.47 2044.5,3045.5C 2044.89,3042.45 2044.22,3039.78 2042.5,3037.5C 2040.95,3026.42 2041.28,3015.42 2043.5,3004.5C 2045.07,3002.9 2045.74,3000.9 2045.5,2998.5C 2055.2,2969.8 2074.86,2952.47 2104.5,2946.5C 2114.15,2945.37 2123.82,2945.37 2133.5,2946.5 Z"/></g>
<g><path style="opacity:1" fill="#556183" d="M 2303.5,2939.5 C 2305.93,2942.71 2307.6,2946.38 2308.5,2950.5C 2305.62,2947.48 2303.95,2943.81 2303.5,2939.5 Z"/></g>
<g><path style="opacity:1" fill="#fdfdfe" d="M 4087.5,2946.5 C 4087.83,2946.5 4088.17,2946.5 4088.5,2946.5C 4088.61,2947.12 4088.94,2947.62 4089.5,2948C 4091.87,2948.44 4094.2,2948.94 4096.5,2949.5C 4117.71,2957.38 4132.71,2971.71 4141.5,2992.5C 4141.47,2997.06 4142.8,3001.06 4145.5,3004.5C 4145.99,3007.66 4146.66,3010.66 4147.5,3013.5C 4147.66,3021.53 4147.32,3029.53 4146.5,3037.5C 4136.74,3077.41 4111.24,3098.74 4070,3101.5C 4043.1,3099.71 4022.43,3087.38 4008,3064.5C 3987.63,3025 3993.8,2990.17 4026.5,2960C 4036.15,2952.95 4046.81,2948.45 4058.5,2946.5C 4068.16,2945.2 4077.83,2945.2 4087.5,2946.5 Z"/></g>
<g><path style="opacity:1" fill="#9699af" d="M 4088.5,2946.5 C 4090.8,2947.06 4093.13,2947.56 4095.5,2948C 4096.06,2948.38 4096.39,2948.88 4096.5,2949.5C 4094.2,2948.94 4091.87,2948.44 4089.5,2948C 4088.94,2947.62 4088.61,2947.12 4088.5,2946.5 Z"/></g>
<g><path style="opacity:1" fill="#566284" d="M 3882.5,2944.5 C 3882.53,2949.6 3880.86,2953.93 3877.5,2957.5C 3879.33,2953.17 3880.99,2948.84 3882.5,2944.5 Z"/></g>
<g><path style="opacity:1" fill="#727896" d="M 2310.5,2956.5 C 2312.31,2959.14 2313.31,2962.14 2313.5,2965.5C 2311.53,2962.92 2310.53,2959.92 2310.5,2956.5 Z"/></g>
<g><path style="opacity:1" fill="#fefefe" d="M 5863.5,2964.5 C 5886.79,2963.27 5909.46,2966.44 5931.5,2974C 5968.17,2990.12 5991.67,3017.62 6002,3056.5C 6008.82,3083.42 6011.65,3110.75 6010.5,3138.5C 5918.5,3138.67 5826.5,3138.5 5734.5,3138C 5734,3137.5 5733.5,3137 5733,3136.5C 5736.95,3091.32 5751.95,3050.32 5778,3013.5C 5799.95,2985.61 5828.45,2969.28 5863.5,2964.5 Z"/></g>
<g><path style="opacity:1" fill="#9699af" d="M 2315.5,2971.5 C 2316.58,2974.63 2317.25,2977.96 2317.5,2981.5C 2315.83,2978.49 2315.16,2975.16 2315.5,2971.5 Z"/></g>
<g><path style="opacity:1" fill="#fefefe" d="M 8986.5,2980.5 C 9054.01,2974 9104.17,3000 9137,3058.5C 9153.2,3090.64 9163.2,3124.64 9167,3160.5C 9169.48,3193.45 9170.14,3226.45 9169,3259.5C 9167.29,3305.1 9156.63,3348.43 9137,3389.5C 9103.12,3449.69 9051.62,3475.19 8982.5,3466C 8937.31,3458.49 8903.15,3434.99 8880,3395.5C 8863.87,3365.44 8853.54,3333.44 8849,3299.5C 8847.26,3287.55 8845.93,3275.55 8845,3263.5C 8844.33,3238.5 8844.33,3213.5 8845,3188.5C 8846.59,3146.48 8855.59,3106.15 8872,3067.5C 8888.53,3032.31 8914.36,3006.47 8949.5,2990C 8961.76,2986.02 8974.1,2982.85 8986.5,2980.5 Z"/></g>
<g><path style="opacity:1" fill="#898ca5" d="M 1917.5,2978.5 C 1917.74,2980.9 1917.07,2982.9 1915.5,2984.5C 1915.26,2982.1 1915.93,2980.1 1917.5,2978.5 Z"/></g>
<g><path style="opacity:1" fill="#8287a1" d="M 3872.5,2976.5 C 3871.69,2984.36 3870.36,2992.03 3868.5,2999.5C 3868.63,2991.41 3869.96,2983.75 3872.5,2976.5 Z"/></g>
<g><path style="opacity:1" fill="#666f8e" d="M 2317.5,2983.5 C 2319.93,2989.82 2320.93,2996.49 2320.5,3003.5C 2318.5,2997.11 2317.5,2990.45 2317.5,2983.5 Z"/></g>
<g><path style="opacity:1" fill="#c4c5d2" d="M 4141.5,2992.5 C 4143.14,2996.37 4144.47,3000.37 4145.5,3004.5C 4142.8,3001.06 4141.47,2997.06 4141.5,2992.5 Z"/></g>
<g><path style="opacity:1" fill="#7c829d" d="M 1915.5,2987.5 C 1915.72,2992.1 1915.05,2996.43 1913.5,3000.5C 1913.16,2995.88 1913.82,2991.54 1915.5,2987.5 Z"/></g>
<g><path style="opacity:1" fill="#acaec0" d="M 2045.5,2998.5 C 2045.74,3000.9 2045.07,3002.9 2043.5,3004.5C 2043.26,3002.1 2043.93,3000.1 2045.5,2998.5 Z"/></g>
<g><path style="opacity:1" fill="#5f6889" d="M 2189.5,3001.5 C 2190.12,3001.61 2190.62,3001.94 2191,3002.5C 2191.72,3006.15 2192.22,3009.81 2192.5,3013.5C 2190.95,3009.75 2189.95,3005.75 2189.5,3001.5 Z"/></g>
<g><path style="opacity:1" fill="#c4c4d1" d="M 3868.5,3003.5 C 3867.59,3015.14 3867.25,3026.8 3867.5,3038.5C 3866.34,3028.01 3866.17,3017.34 3867,3006.5C 3867.23,3005.26 3867.73,3004.26 3868.5,3003.5 Z"/></g>
<g><path style="opacity:1" fill="#9699af" d="M 1913.5,3000.5 C 1913.5,3015.83 1913.5,3031.17 1913.5,3046.5C 1912.48,3038.99 1911.48,3031.32 1910.5,3023.5C 1911.48,3015.68 1912.48,3008.01 1913.5,3000.5 Z"/></g>
<g><path style="opacity:1" fill="#6e7593" d="M 4275.5,2998.5 C 4276.66,3014.33 4276.83,3030.33 4276,3046.5C 4275.79,3048.06 4275.29,3049.39 4274.5,3050.5C 4275.4,3033.19 4275.73,3015.85 4275.5,2998.5 Z"/></g>
<g><path style="opacity:1" fill="#606788" d="M 4147.5,3013.5 C 4148.17,3016.65 4148.5,3019.98 4148.5,3023.5C 4148.7,3028.44 4148.03,3033.1 4146.5,3037.5C 4147.32,3029.53 4147.66,3021.53 4147.5,3013.5 Z"/></g>
<g><path style="opacity:1" fill="#9194ac" d="M 2836.5,3030.5 C 2836.34,3032.15 2835.67,3033.49 2834.5,3034.5C 2834.23,3032.62 2834.9,3031.29 2836.5,3030.5 Z"/></g>
<g><path style="opacity:1" fill="#465579" d="M 2192.5,3017.5 C 2193.82,3024.34 2193.82,3031.34 2192.5,3038.5C 2192.03,3041.22 2191.03,3043.55 2189.5,3045.5C 2191.99,3036.38 2192.99,3027.05 2192.5,3017.5 Z"/></g>
<g><path style="opacity:1" fill="#a1a2b7" d="M 2042.5,3037.5 C 2044.22,3039.78 2044.89,3042.45 2044.5,3045.5C 2043.23,3043.09 2042.57,3040.43 2042.5,3037.5 Z"/></g>
<g><path style="opacity:1" fill="#898da6" d="M 3868.5,3046.5 C 3870.05,3050.57 3870.72,3054.9 3870.5,3059.5C 3869.29,3055.38 3868.62,3051.05 3868.5,3046.5 Z"/></g>
<g><path style="opacity:1" fill="#bfc0cd" d="M 1913.5,3046.5 C 1914.52,3050.98 1915.19,3055.65 1915.5,3060.5C 1914.78,3060.08 1914.28,3059.42 1914,3058.5C 1913.5,3054.51 1913.33,3050.51 1913.5,3046.5 Z"/></g>
<g><path style="opacity:1" fill="#9093ab" d="M 2811.5,3076.5 C 2811.57,3078.03 2810.91,3079.03 2809.5,3079.5C 2809.43,3077.97 2810.09,3076.97 2811.5,3076.5 Z"/></g>
<g><path style="opacity:1" fill="#c4c5d1" d="M 3872.5,3071.5 C 3874.04,3075.35 3875.37,3079.35 3876.5,3083.5C 3873.8,3080.1 3872.47,3076.1 3872.5,3071.5 Z"/></g>
<g><path style="opacity:1" fill="#787e9a" d="M 4268.5,3081.5 C 4267.86,3084.86 4267.03,3088.2 4266,3091.5C 4265.62,3092.06 4265.12,3092.39 4264.5,3092.5C 4265.63,3089.26 4266.47,3085.93 4267,3082.5C 4267.38,3081.94 4267.88,3081.61 4268.5,3081.5 Z"/></g>
<g><path style="opacity:1" fill="#9093ab" d="M 2147.5,3095.5 C 2146.07,3096.54 2144.4,3097.2 2142.5,3097.5C 2143.64,3095.79 2145.3,3095.12 2147.5,3095.5 Z"/></g>
<g><path style="opacity:1" fill="#9194ac" d="M 2590.5,3188.5 C 2590.57,3190.03 2589.91,3191.03 2588.5,3191.5C 2588.43,3189.97 2589.09,3188.97 2590.5,3188.5 Z"/></g>
<g><path style="opacity:1" fill="#777c99" d="M 3982.5,3209.5 C 3984.97,3209.75 3986.97,3210.75 3988.5,3212.5C 3986.03,3212.25 3984.03,3211.25 3982.5,3209.5 Z"/></g>
<g><path style="opacity:1" fill="#7a7f9b" d="M 2033.5,3212.5 C 2035.97,3212.75 2037.97,3213.75 2039.5,3215.5C 2037.03,3215.25 2035.03,3214.25 2033.5,3212.5 Z"/></g>
<g><path style="opacity:1" fill="#5c6688" d="M 2041.5,3216.5 C 2043.7,3216.59 2045.86,3216.92 2048,3217.5C 2051.97,3219.23 2055.81,3220.9 2059.5,3222.5C 2053.04,3221.46 2047.04,3219.46 2041.5,3216.5 Z"/></g>
<g><path style="opacity:1" fill="#183862" d="M 4342.5,3392.5 C 4342.43,3394.03 4343.09,3395.03 4344.5,3395.5C 4386.29,3468.41 4428.13,3541.41 4470,3614.5C 4470.78,3615.94 4470.61,3617.28 4469.5,3618.5C 4454.99,3643.52 4440.99,3668.85 4427.5,3694.5C 4426.09,3694.97 4425.43,3695.97 4425.5,3697.5C 4363.18,3809.87 4301.18,3922.53 4239.5,4035.5C 4238.09,4035.97 4237.43,4036.97 4237.5,4038.5C 4232.43,4046.92 4227.76,4055.58 4223.5,4064.5C 4222.09,4064.97 4221.43,4065.97 4221.5,4067.5C 4212.65,4082.54 4204.31,4097.87 4196.5,4113.5C 4195.09,4113.97 4194.43,4114.97 4194.5,4116.5C 4157.09,4183.96 4119.59,4251.62 4082,4319.5C 4080.22,4323.09 4078.72,4326.76 4077.5,4330.5C 4076.45,4330.65 4075.45,4330.48 4074.5,4330C 4038.97,4302.97 4003.31,4276.14 3967.5,4249.5C 3966.39,4248.28 3966.22,4246.94 3967,4245.5C 4084.68,4035.33 4202.51,3825.5 4320.5,3616C 4258.33,3508.53 4196.33,3400.86 4134.5,3293C 4169.58,3266.95 4205.58,3242.12 4242.5,3218.5C 4244.45,3219.71 4245.95,3221.37 4247,3223.5C 4278.63,3279.96 4310.47,3336.29 4342.5,3392.5 Z"/></g>
<g><path style="opacity:1" fill="#9b9db3" d="M 4140.5,3218.5 C 4138.72,3220.36 4136.39,3221.36 4133.5,3221.5C 4135.39,3219.76 4137.73,3218.76 4140.5,3218.5 Z"/></g>
<g><path style="opacity:1" fill="#7e829e" d="M 4015.5,3222.5 C 4018.15,3222.41 4020.49,3223.08 4022.5,3224.5C 4019.85,3224.59 4017.51,3223.92 4015.5,3222.5 Z"/></g>
<g><path style="opacity:1" fill="#173862" d="M 2570.5,3725.5 C 2570.43,3727.03 2571.09,3728.03 2572.5,3728.5C 2596.54,3773.55 2620.54,3818.55 2644.5,3863.5C 2644.5,3864.83 2644.5,3866.17 2644.5,3867.5C 2944,3867.83 3243.33,3867.5 3542.5,3866.5C 3578.22,3798.72 3614.22,3731.05 3650.5,3663.5C 3651.91,3663.03 3652.57,3662.03 3652.5,3660.5C 3686.42,3596.17 3720.75,3532 3755.5,3468C 3794.86,3489.13 3834.19,3510.63 3873.5,3532.5C 3874.68,3533.51 3875.68,3534.68 3876.5,3536C 3818.6,3642.3 3760.6,3748.47 3702.5,3854.5C 3701.09,3854.97 3700.43,3855.97 3700.5,3857.5C 3693.57,3869.7 3686.9,3882.03 3680.5,3894.5C 3679.09,3894.97 3678.43,3895.97 3678.5,3897.5C 3660.61,3929.29 3643.28,3961.29 3626.5,3993.5C 3616.58,3994.47 3606.58,3994.81 3596.5,3994.5C 3541.67,3993.67 3486.67,3993.17 3431.5,3993C 3210.17,3992.5 2988.83,3992.33 2767.5,3992.5C 2700.26,3991.83 2632.93,3991.16 2565.5,3990.5C 2441.42,3758.01 2317.09,3525.68 2192.5,3293.5C 2192.83,3292.83 2193.17,3292.17 2193.5,3291.5C 2228.63,3268.86 2263.63,3246.03 2298.5,3223C 2299.78,3222.32 2300.95,3222.48 2302,3223.5C 2391.79,3390.76 2481.29,3558.09 2570.5,3725.5 Z"/></g>
<g><path style="opacity:1" fill="#9c9fb4" d="M 4131.5,3221.5 C 4131.39,3222.12 4131.06,3222.62 4130.5,3223C 4126.93,3223.39 4123.6,3224.39 4120.5,3226C 4117.85,3226.5 4115.19,3226.66 4112.5,3226.5C 4118.53,3224.41 4124.87,3222.74 4131.5,3221.5 Z"/></g>
<g><path style="opacity:1" fill="#9c9db3" d="M 4040.5,3228.5 C 4046.07,3228.38 4051.4,3229.04 4056.5,3230.5C 4050.93,3230.62 4045.6,3229.96 4040.5,3228.5 Z"/></g>
<g><path style="opacity:1" fill="#566183" d="M 2074.5,3226.5 C 2087.03,3227.32 2099.36,3228.65 2111.5,3230.5C 2098.79,3231.19 2086.46,3229.86 2074.5,3226.5 Z"/></g>
<g><path style="opacity:1" fill="#9295ac" d="M 2145.5,3228.5 C 2142.49,3230.17 2139.16,3230.84 2135.5,3230.5C 2138.54,3228.99 2141.88,3228.32 2145.5,3228.5 Z"/></g>
<g><path style="opacity:1" fill="#505c7e" d="M 6168.5,3136.5 C 6169.5,3176 6169.83,3215.66 6169.5,3255.5C 6023.5,3255.5 5877.5,3255.5 5731.5,3255.5C 5877,3254.5 6022.67,3254.17 6168.5,3254.5C 6168.5,3215.17 6168.5,3175.83 6168.5,3136.5 Z"/></g>
<g><path style="opacity:1" fill="#9294ac" d="M 2655.5,3362.5 C 2655.57,3364.03 2654.91,3365.03 2653.5,3365.5C 2653.43,3363.97 2654.09,3362.97 2655.5,3362.5 Z"/></g>
<g><path style="opacity:1" fill="#8e91aa" d="M 4342.5,3392.5 C 4343.91,3392.97 4344.57,3393.97 4344.5,3395.5C 4343.09,3395.03 4342.43,3394.03 4342.5,3392.5 Z"/></g>
<g><path style="opacity:1" fill="#6f7492" d="M 4927.5,3463.5 C 4926.51,3497.43 4926.17,3531.43 4926.5,3565.5C 4925.83,3548.67 4925.5,3531.67 4925.5,3514.5C 4925.5,3497.15 4926.17,3480.15 4927.5,3463.5 Z"/></g>
<g><path style="opacity:1" fill="#67ade0" d="M 9790.5,3479.5 C 9791.5,3479.5 9792.5,3479.5 9793.5,3479.5C 9793.83,3514 9793.5,3548.34 9792.5,3582.5C 9793.15,3547.94 9792.48,3513.61 9790.5,3479.5 Z"/></g>
<g><path style="opacity:1" fill="#9093ab" d="M 3652.5,3660.5 C 3652.57,3662.03 3651.91,3663.03 3650.5,3663.5C 3650.43,3661.97 3651.09,3660.97 3652.5,3660.5 Z"/></g>
<g><path style="opacity:1" fill="#9093ab" d="M 4427.5,3694.5 C 4427.57,3696.03 4426.91,3697.03 4425.5,3697.5C 4425.43,3695.97 4426.09,3694.97 4427.5,3694.5 Z"/></g>
<g><path style="opacity:1" fill="#8d91a9" d="M 2570.5,3725.5 C 2571.91,3725.97 2572.57,3726.97 2572.5,3728.5C 2571.09,3728.03 2570.43,3727.03 2570.5,3725.5 Z"/></g>
<g><path style="opacity:1" fill="#8e91a9" d="M 3702.5,3854.5 C 3702.57,3856.03 3701.91,3857.03 3700.5,3857.5C 3700.43,3855.97 3701.09,3854.97 3702.5,3854.5 Z"/></g>
<g><path style="opacity:1" fill="#4c587b" d="M 2644.5,3863.5 C 2645.4,3864.21 2645.74,3865.21 2645.5,3866.5C 2944.5,3866.5 3243.5,3866.5 3542.5,3866.5C 3243.33,3867.5 2944,3867.83 2644.5,3867.5C 2644.5,3866.17 2644.5,3864.83 2644.5,3863.5 Z"/></g>
<g><path style="opacity:1" fill="#183862" d="M 9886.5,3876.5 C 9964.23,3871.27 10022.1,3902.27 10060,3969.5C 10077.1,4004.25 10083.5,4040.91 10079,4079.5C 10069.9,4157.23 10028.4,4208.73 9954.5,4234C 9881.62,4251.42 9820.79,4231.92 9772,4175.5C 9736.75,4126.38 9725.42,4072.05 9738,4012.5C 9758.78,3935.55 9808.28,3890.21 9886.5,3876.5 Z"/></g>
<g><path style="opacity:1" fill="#183862" d="M 9684.5,3990.5 C 9658.67,3991.5 9632.67,3991.83 9606.5,3991.5C 9589.69,3957.25 9562.03,3940.58 9523.5,3941.5C 9478.23,3943.6 9447.73,3965.93 9432,4008.5C 9419.22,4050.21 9422.55,4090.54 9442,4129.5C 9466.67,4166.57 9501.17,4181.4 9545.5,4174C 9574,4167.99 9594.34,4151.82 9606.5,4125.5C 9632.49,4124.5 9658.49,4124.17 9684.5,4124.5C 9663.88,4189.27 9619.88,4227.11 9552.5,4238C 9486.73,4246.42 9432.89,4225.26 9391,4174.5C 9360.2,4130.61 9348.53,4081.95 9356,4028.5C 9365.73,3964.47 9399.57,3918.3 9457.5,3890C 9509.2,3870.02 9559.87,3872.36 9609.5,3897C 9646.49,3918.44 9671.49,3949.6 9684.5,3990.5 Z"/></g>
<g><path style="opacity:1" fill="#183862" d="M 11308.5,3985.5 C 11283.2,3987.49 11257.5,3988.16 11231.5,3987.5C 11211,3954.14 11181,3939.3 11141.5,3943C 11102.3,3947.85 11074.8,3968.35 11059,4004.5C 11046.1,4041.27 11046.4,4077.94 11060,4114.5C 11075.7,4149.3 11102.6,4169.47 11140.5,4175C 11165.5,4177.53 11188.9,4172.53 11210.5,4160C 11231.7,4144.02 11244.7,4122.86 11249.5,4096.5C 11250.4,4095.79 11250.7,4094.79 11250.5,4093.5C 11211.8,4093.5 11173.2,4093.5 11134.5,4093.5C 11134.5,4075.17 11134.5,4056.83 11134.5,4038.5C 11195.5,4038.5 11256.5,4038.5 11317.5,4038.5C 11327.7,4105.92 11307,4161.42 11255.5,4205C 11214.6,4235.38 11169,4246.05 11118.5,4237C 11046.6,4220.42 11001.8,4176.25 10984,4104.5C 10971,4044.23 10982.3,3989.23 11018,3939.5C 11063.3,3887.5 11120.2,3867.66 11188.5,3880C 11249,3892 11289,3927.16 11308.5,3985.5 Z"/></g>
<g><path style="opacity:1" fill="#646b8b" d="M 9181.5,3938.5 C 9181.17,3938.5 9180.83,3938.5 9180.5,3938.5C 9180.5,3919.5 9180.5,3900.5 9180.5,3881.5C 9115.5,3881.5 9050.5,3881.5 8985.5,3881.5C 8985.5,3999.83 8985.5,4118.17 8985.5,4236.5C 8984.5,4118 8984.17,3999.33 8984.5,3880.5C 9050.17,3880.5 9115.83,3880.5 9181.5,3880.5C 9181.5,3899.83 9181.5,3919.17 9181.5,3938.5 Z"/></g>
<g><path style="opacity:1" fill="#183862" d="M 8488.5,3881.5 C 8533.83,3881.33 8579.17,3881.5 8624.5,3882C 8719,3891.5 8772.5,3943.33 8785,4037.5C 8789.92,4084.95 8779.58,4128.62 8754,4168.5C 8724.43,4207.05 8685.26,4229.22 8636.5,4235C 8587.19,4236.45 8537.86,4236.95 8488.5,4236.5C 8488.5,4118.17 8488.5,3999.83 8488.5,3881.5 Z"/></g>
<g><path style="opacity:1" fill="#183862" d="M 8842.5,3881.5 C 8865.17,3881.5 8887.83,3881.5 8910.5,3881.5C 8910.5,3999.83 8910.5,4118.17 8910.5,4236.5C 8887.83,4236.5 8865.17,4236.5 8842.5,4236.5C 8842.5,4118.17 8842.5,3999.83 8842.5,3881.5 Z"/></g>
<g><path style="opacity:1" fill="#173862" d="M 9180.5,3938.5 C 9137.83,3938.5 9095.17,3938.5 9052.5,3938.5C 9052.5,3968.5 9052.5,3998.5 9052.5,4028.5C 9090.5,4028.5 9128.5,4028.5 9166.5,4028.5C 9166.5,4047.17 9166.5,4065.83 9166.5,4084.5C 9128.5,4084.5 9090.5,4084.5 9052.5,4084.5C 9052.5,4115.83 9052.5,4147.17 9052.5,4178.5C 9095.5,4178.5 9138.5,4178.5 9181.5,4178.5C 9181.5,4197.83 9181.5,4217.17 9181.5,4236.5C 9116.17,4236.5 9050.83,4236.5 8985.5,4236.5C 8985.5,4118.17 8985.5,3999.83 8985.5,3881.5C 9050.5,3881.5 9115.5,3881.5 9180.5,3881.5C 9180.5,3900.5 9180.5,3919.5 9180.5,3938.5 Z"/></g>
<g><path style="opacity:1" fill="#183862" d="M 10137.5,3881.5 C 10182.8,3881.33 10228.2,3881.5 10273.5,3882C 10368,3891.5 10421.5,3943.33 10434,4037.5C 10438.9,4084.95 10428.6,4128.62 10403,4168.5C 10373.4,4207.05 10334.3,4229.22 10285.5,4235C 10236.2,4236.45 10186.9,4236.95 10137.5,4236.5C 10137.5,4118.17 10137.5,3999.83 10137.5,3881.5 Z"/></g>
<g><path style="opacity:1" fill="#183862" d="M 10491.5,3881.5 C 10514.2,3881.5 10536.8,3881.5 10559.5,3881.5C 10559.5,3999.83 10559.5,4118.17 10559.5,4236.5C 10536.8,4236.5 10514.2,4236.5 10491.5,4236.5C 10491.5,4118.17 10491.5,3999.83 10491.5,3881.5 Z"/></g>
<g><path style="opacity:1" fill="#6d7291" d="M 10701.5,3881.5 C 10678.8,3881.5 10656.2,3881.5 10633.5,3881.5C 10633.5,3999.83 10633.5,4118.17 10633.5,4236.5C 10632.5,4118 10632.2,3999.33 10632.5,3880.5C 10655.7,3880.17 10678.7,3880.5 10701.5,3881.5 Z"/></g>
<g><path style="opacity:1" fill="#173862" d="M 10701.5,3881.5 C 10751.8,3961.5 10802.2,4041.5 10852.5,4121.5C 10853,4122.47 10853.5,4123.47 10854,4124.5C 10854.5,4043.5 10854.7,3962.5 10854.5,3881.5C 10876.8,3881.5 10899.2,3881.5 10921.5,3881.5C 10921.5,3999.83 10921.5,4118.17 10921.5,4236.5C 10898.8,4236.83 10876.2,4236.5 10853.5,4235.5C 10803.2,4155.47 10752.8,4075.47 10702.5,3995.5C 10702.2,3994.71 10701.7,3994.04 10701,3993.5C 10700.5,4074.5 10700.3,4155.5 10700.5,4236.5C 10678.2,4236.5 10655.8,4236.5 10633.5,4236.5C 10633.5,4118.17 10633.5,3999.83 10633.5,3881.5C 10656.2,3881.5 10678.8,3881.5 10701.5,3881.5 Z"/></g>
<g><path style="opacity:1" fill="#d2d2db" d="M 10854.5,3880.5 C 10854.5,3880.83 10854.5,3881.17 10854.5,3881.5C 10854.7,3962.5 10854.5,4043.5 10854,4124.5C 10853.5,4123.47 10853,4122.47 10852.5,4121.5C 10853.2,4041.17 10853.8,3960.83 10854.5,3880.5 Z"/></g>
<g><path style="opacity:1" fill="#445277" d="M 10854.5,3881.5 C 10854.5,3881.17 10854.5,3880.83 10854.5,3880.5C 10877.2,3880.5 10899.8,3880.5 10922.5,3880.5C 10922.8,3999.33 10922.5,4118 10921.5,4236.5C 10921.5,4118.17 10921.5,3999.83 10921.5,3881.5C 10899.2,3881.5 10876.8,3881.5 10854.5,3881.5 Z"/></g>
<g><path style="opacity:1" fill="#8d91a9" d="M 3680.5,3894.5 C 3680.57,3896.03 3679.91,3897.03 3678.5,3897.5C 3678.43,3895.97 3679.09,3894.97 3680.5,3894.5 Z"/></g>
<g><path style="opacity:1" fill="#9194ac" d="M 9180.5,3938.5 C 9180.83,3938.5 9181.17,3938.5 9181.5,3938.5C 9139,3939.5 9096.34,3939.83 9053.5,3939.5C 9053.5,3968.83 9053.5,3998.17 9053.5,4027.5C 9091.5,4027.5 9129.5,4027.5 9167.5,4027.5C 9167.83,4046.67 9167.5,4065.67 9166.5,4084.5C 9166.5,4065.83 9166.5,4047.17 9166.5,4028.5C 9128.5,4028.5 9090.5,4028.5 9052.5,4028.5C 9052.5,3998.5 9052.5,3968.5 9052.5,3938.5C 9095.17,3938.5 9137.83,3938.5 9180.5,3938.5 Z"/></g>
<g><path style="opacity:1" fill="#fefefe" d="M 9893.5,3940.5 C 9961.71,3938.87 10000.2,3971.87 10009,4039.5C 10011.9,4066.77 10008.2,4093.1 9998,4118.5C 9976.5,4160.59 9942,4179.76 9894.5,4176C 9848.17,4168.67 9819.34,4142.17 9808,4096.5C 9800.41,4063.86 9802.41,4031.86 9814,4000.5C 9829.81,3966.18 9856.31,3946.18 9893.5,3940.5 Z"/></g>
<g><path style="opacity:1" fill="#fefefe" d="M 8557.5,3941.5 C 8577.84,3941.33 8598.17,3941.5 8618.5,3942C 8676.45,3948.95 8708.62,3981.45 8715,4039.5C 8718.76,4070.7 8713.76,4100.37 8700,4128.5C 8679.86,4158.83 8651.36,4174.5 8614.5,4175.5C 8595.5,4175.5 8576.5,4175.5 8557.5,4175.5C 8557.5,4097.5 8557.5,4019.5 8557.5,3941.5 Z"/></g>
<g><path style="opacity:1" fill="#fefefe" d="M 10206.5,3941.5 C 10226.8,3941.33 10247.2,3941.5 10267.5,3942C 10325.5,3948.95 10357.6,3981.45 10364,4039.5C 10367.8,4070.7 10362.8,4100.37 10349,4128.5C 10328.9,4158.83 10300.4,4174.5 10263.5,4175.5C 10244.5,4175.5 10225.5,4175.5 10206.5,4175.5C 10206.5,4097.5 10206.5,4019.5 10206.5,3941.5 Z"/></g>
<g><path style="opacity:1" fill="#4c597b" d="M 11308.5,3985.5 C 11309.4,3986.21 11309.7,3987.21 11309.5,3988.5C 11283.3,3988.83 11257.3,3988.5 11231.5,3987.5C 11257.5,3988.16 11283.2,3987.49 11308.5,3985.5 Z"/></g>
<g><path style="opacity:1" fill="#707594" d="M 2565.5,3990.5 C 2632.93,3991.16 2700.26,3991.83 2767.5,3992.5C 2699.83,3993.16 2632.49,3992.5 2565.5,3990.5 Z"/></g>
<g><path style="opacity:1" fill="#a4a6b9" d="M 9684.5,3990.5 C 9685.04,3990.56 9685.38,3990.89 9685.5,3991.5C 9659,3992.83 9632.67,3992.83 9606.5,3991.5C 9632.67,3991.83 9658.67,3991.5 9684.5,3990.5 Z"/></g>
<g><path style="opacity:1" fill="#707694" d="M 2767.5,3992.5 C 2988.83,3992.33 3210.17,3992.5 3431.5,3993C 3486.67,3993.17 3541.67,3993.67 3596.5,3994.5C 3541.17,3994.5 3485.83,3994.5 3430.5,3994.5C 3209.33,3994.05 2988.33,3993.39 2767.5,3992.5 Z"/></g>
<g><path style="opacity:1" fill="#d3d3dc" d="M 3626.5,3993.5 C 3594.17,3994.83 3561.51,3995.5 3528.5,3995.5C 3495.66,3995.5 3463,3995.17 3430.5,3994.5C 3485.83,3994.5 3541.17,3994.5 3596.5,3994.5C 3606.58,3994.81 3616.58,3994.47 3626.5,3993.5 Z"/></g>
<g><path style="opacity:1" fill="#a2a4b8" d="M 10702.5,3995.5 C 10701.8,4075.83 10701.2,4156.17 10700.5,4236.5C 10700.3,4155.5 10700.5,4074.5 10701,3993.5C 10701.7,3994.04 10702.2,3994.71 10702.5,3995.5 Z"/></g>
<g><path style="opacity:1" fill="#9294ac" d="M 4239.5,4035.5 C 4239.57,4037.03 4238.91,4038.03 4237.5,4038.5C 4237.43,4036.97 4238.09,4035.97 4239.5,4035.5 Z"/></g>
<g><path style="opacity:1" fill="#565e81" d="M 2655.5,4040.5 C 2635.83,4041.17 2616.17,4041.83 2596.5,4042.5C 2595.96,4042.44 2595.62,4042.11 2595.5,4041.5C 2615.49,4040.5 2635.49,4040.17 2655.5,4040.5 Z"/></g>
<g><path style="opacity:1" fill="#173862" d="M 2957.5,4434.5 C 3101.83,4436.5 3246.5,4437.17 3391.5,4436.5C 3391.5,4486.17 3391.5,4535.83 3391.5,4585.5C 3222.17,4585.5 3052.83,4585.5 2883.5,4585.5C 2787.64,4404.57 2691.97,4223.57 2596.5,4042.5C 2616.17,4041.83 2635.83,4041.17 2655.5,4040.5C 2687.08,4040.29 2718.58,4040.29 2750,4040.5C 2819.44,4171.72 2888.61,4303.05 2957.5,4434.5 Z"/></g>
<g><path style="opacity:1" fill="#dad9e2" d="M 6382.5,4046.5 C 7039.83,4046.33 7697.17,4046.5 8354.5,4047C 8355.49,4068.09 8355.83,4089.26 8355.5,4110.5C 8304.66,4110.83 8254,4110.5 8203.5,4109.5C 8253.5,4109.5 8303.5,4109.5 8353.5,4109.5C 8354.83,4089.1 8354.83,4068.6 8353.5,4048C 8101.17,4047.5 7848.83,4047.33 7596.5,4047.5C 7191.67,4047.83 6787,4047.5 6382.5,4046.5 Z"/></g>
<g><path style="opacity:1" fill="#173862" d="M 5168.5,4046.5 C 5977.67,4048.28 6787,4048.94 7596.5,4048.5C 7848.83,4048.33 8101.17,4048.66 8353.5,4049.5C 8353.5,4069.5 8353.5,4089.5 8353.5,4109.5C 8303.5,4109.5 8253.5,4109.5 8203.5,4109.5C 8001.17,4109.5 7798.83,4109.5 7596.5,4109.5C 7394.33,4108.67 7192,4108.17 6989.5,4108C 6314.17,4107.5 5638.83,4107.33 4963.5,4107.5C 4963.5,4087.17 4963.5,4066.83 4963.5,4046.5C 5031.83,4046.5 5100.17,4046.5 5168.5,4046.5 Z"/></g>
<g><path style="opacity:1" fill="#4a577b" d="M 5168.5,4046.5 C 5573.17,4046.5 5977.83,4046.5 6382.5,4046.5C 6787,4047.5 7191.67,4047.83 7596.5,4047.5C 7596.5,4047.83 7596.5,4048.17 7596.5,4048.5C 6787,4048.94 5977.67,4048.28 5168.5,4046.5 Z"/></g>
<g><path style="opacity:1" fill="#6e7493" d="M 7596.5,4048.5 C 7596.5,4048.17 7596.5,4047.83 7596.5,4047.5C 7848.83,4047.33 8101.17,4047.5 8353.5,4048C 8354.83,4068.6 8354.83,4089.1 8353.5,4109.5C 8353.5,4089.5 8353.5,4069.5 8353.5,4049.5C 8101.17,4048.66 7848.83,4048.33 7596.5,4048.5 Z"/></g>
<g><path style="opacity:1" fill="#9194ac" d="M 4223.5,4064.5 C 4223.57,4066.03 4222.91,4067.03 4221.5,4067.5C 4221.43,4065.97 4222.09,4064.97 4223.5,4064.5 Z"/></g>
<g><path style="opacity:1" fill="#e5e5e9" d="M 11134.5,4093.5 C 11173.2,4093.5 11211.8,4093.5 11250.5,4093.5C 11250.7,4094.79 11250.4,4095.79 11249.5,4096.5C 11211.3,4094.84 11173,4093.84 11134.5,4093.5 Z"/></g>
<g><path style="opacity:1" fill="#6f7593" d="M 4963.5,4107.5 C 5638.83,4107.33 6314.17,4107.5 6989.5,4108C 7192,4108.17 7394.33,4108.67 7596.5,4109.5C 6718.67,4109.87 5841,4109.2 4963.5,4107.5 Z"/></g>
<g><path style="opacity:1" fill="#707594" d="M 11411.5,4047.5 C 11411.5,4047.83 11411.5,4048.17 11411.5,4048.5C 11411.5,4068.5 11411.5,4088.5 11411.5,4108.5C 11526.8,4108.5 11642.2,4108.5 11757.5,4108.5C 11758.5,4088.34 11758.8,4068.01 11758.5,4047.5C 11759.5,4067.99 11759.8,4088.66 11759.5,4109.5C 11643.2,4109.5 11526.8,4109.5 11410.5,4109.5C 11410.2,4088.66 11410.5,4067.99 11411.5,4047.5 Z"/></g>
<g><path style="opacity:1" fill="#294169" d="M 11411.5,4048.5 C 11411.8,4048.5 11412.2,4048.5 11412.5,4048.5C 11412.5,4068.17 11412.5,4087.83 11412.5,4107.5C 11527.5,4107.5 11642.5,4107.5 11757.5,4107.5C 11757.5,4107.83 11757.5,4108.17 11757.5,4108.5C 11642.2,4108.5 11526.8,4108.5 11411.5,4108.5C 11411.5,4088.5 11411.5,4068.5 11411.5,4048.5 Z"/></g>
<g><path style="opacity:1" fill="#173862" d="M 11412.5,4048.5 C 11527.5,4048.5 11642.5,4048.5 11757.5,4048.5C 11757.5,4068.17 11757.5,4087.83 11757.5,4107.5C 11642.5,4107.5 11527.5,4107.5 11412.5,4107.5C 11412.5,4087.83 11412.5,4068.17 11412.5,4048.5 Z"/></g>
<g><path style="opacity:1" fill="#535d80" d="M 11411.5,4048.5 C 11411.5,4048.17 11411.5,4047.83 11411.5,4047.5C 11527.2,4047.5 11642.8,4047.5 11758.5,4047.5C 11758.8,4068.01 11758.5,4088.34 11757.5,4108.5C 11757.5,4108.17 11757.5,4107.83 11757.5,4107.5C 11757.5,4087.83 11757.5,4068.17 11757.5,4048.5C 11642.5,4048.5 11527.5,4048.5 11412.5,4048.5C 11412.2,4048.5 11411.8,4048.5 11411.5,4048.5 Z"/></g>
<g><path style="opacity:1" fill="#9093aa" d="M 4196.5,4113.5 C 4196.57,4115.03 4195.91,4116.03 4194.5,4116.5C 4194.43,4114.97 4195.09,4113.97 4196.5,4113.5 Z"/></g>
<g><path style="opacity:1" fill="#8387a1" d="M 8557.5,3941.5 C 8557.5,4019.5 8557.5,4097.5 8557.5,4175.5C 8576.5,4175.5 8595.5,4175.5 8614.5,4175.5C 8595.34,4176.5 8576.01,4176.83 8556.5,4176.5C 8556.17,4098 8556.5,4019.66 8557.5,3941.5 Z"/></g>
<g><path style="opacity:1" fill="#8387a1" d="M 10206.5,3941.5 C 10206.5,4019.5 10206.5,4097.5 10206.5,4175.5C 10225.5,4175.5 10244.5,4175.5 10263.5,4175.5C 10244.3,4176.5 10225,4176.83 10205.5,4176.5C 10205.2,4098 10205.5,4019.66 10206.5,3941.5 Z"/></g>
<g><path style="opacity:1" fill="#767b98" d="M 3911.5,4292.5 C 3898.15,4292.33 3884.82,4292.67 3871.5,4293.5C 3872.61,4292.71 3873.94,4292.21 3875.5,4292C 3887.67,4291.17 3899.67,4291.34 3911.5,4292.5 Z"/></g>
<g><path style="opacity:1" fill="#183862" d="M 3911.5,4292.5 C 3919.57,4294.68 3927.9,4296.01 3936.5,4296.5C 3940.08,4296.55 3943.41,4297.22 3946.5,4298.5C 3946.61,4299.12 3946.94,4299.62 3947.5,4300C 3951.78,4301.16 3956.12,4301.99 3960.5,4302.5C 4011.05,4320.88 4049.55,4353.55 4076,4400.5C 4078.8,4406.41 4081.3,4412.41 4083.5,4418.5C 4083.75,4420.97 4084.75,4422.97 4086.5,4424.5C 4088.96,4430.67 4090.96,4437.01 4092.5,4443.5C 4092.26,4445.9 4092.93,4447.9 4094.5,4449.5C 4095.49,4454.08 4096.16,4458.75 4096.5,4463.5C 4098.2,4482.79 4098.87,4502.12 4098.5,4521.5C 4098.5,4522.5 4098.5,4523.5 4098.5,4524.5C 4097.59,4526.02 4096.76,4527.69 4096,4529.5C 4095.49,4536.22 4094.66,4542.88 4093.5,4549.5C 4093.5,4550.17 4093.5,4550.83 4093.5,4551.5C 4092.88,4551.61 4092.38,4551.94 4092,4552.5C 4091.3,4555.48 4090.8,4558.48 4090.5,4561.5C 4069.21,4625.78 4027.21,4670.11 3964.5,4694.5C 3962.3,4694.12 3960.64,4694.79 3959.5,4696.5C 3955.31,4697 3951.31,4698 3947.5,4699.5C 3944.63,4699.8 3941.96,4700.47 3939.5,4701.5C 3933.09,4703.34 3926.42,4704.34 3919.5,4704.5C 3907.87,4705.71 3896.2,4706.38 3884.5,4706.5C 3878.42,4704.82 3872.08,4704.16 3865.5,4704.5C 3862.41,4703.22 3859.08,4702.55 3855.5,4702.5C 3855.17,4702.5 3854.83,4702.5 3854.5,4702.5C 3852.9,4700.93 3850.9,4700.26 3848.5,4700.5C 3839.97,4698.95 3831.63,4696.62 3823.5,4693.5C 3821.97,4691.75 3819.97,4690.75 3817.5,4690.5C 3797.63,4682.8 3779.63,4671.96 3763.5,4658C 3729.05,4627.02 3706.38,4589.18 3695.5,4544.5C 3695.3,4534.86 3693.96,4525.52 3691.5,4516.5C 3689.84,4498.88 3690.51,4481.22 3693.5,4463.5C 3695.07,4461.9 3695.74,4459.9 3695.5,4457.5C 3697.88,4442.48 3702.21,4428.15 3708.5,4414.5C 3710.25,4412.97 3711.25,4410.97 3711.5,4408.5C 3738.26,4353.9 3780.6,4317.4 3838.5,4299C 3843.46,4297.84 3848.46,4297.01 3853.5,4296.5C 3857.16,4296.05 3860.83,4295.55 3864.5,4295C 3865.42,4294.72 3866.08,4294.22 3866.5,4293.5C 3868.17,4293.5 3869.83,4293.5 3871.5,4293.5C 3884.82,4292.67 3898.15,4292.33 3911.5,4292.5 Z"/></g>
<g><path style="opacity:1" fill="#69708f" d="M 3866.5,4293.5 C 3866.08,4294.22 3865.42,4294.72 3864.5,4295C 3860.83,4295.55 3857.16,4296.05 3853.5,4296.5C 3857.48,4294.55 3861.81,4293.55 3866.5,4293.5 Z"/></g>
<g><path style="opacity:1" fill="#47567a" d="M 3911.5,4292.5 C 3919.16,4293.33 3926.82,4294.16 3934.5,4295C 3935.42,4295.28 3936.08,4295.78 3936.5,4296.5C 3927.9,4296.01 3919.57,4294.68 3911.5,4292.5 Z"/></g>
<g><path style="opacity:1" fill="#586486" d="M 3946.5,4298.5 C 3951.44,4299.23 3956.11,4300.56 3960.5,4302.5C 3956.12,4301.99 3951.78,4301.16 3947.5,4300C 3946.94,4299.62 3946.61,4299.12 3946.5,4298.5 Z"/></g>
<g><path style="opacity:1" fill="#6e7493" d="M 3711.5,4408.5 C 3711.25,4410.97 3710.25,4412.97 3708.5,4414.5C 3708.75,4412.03 3709.75,4410.03 3711.5,4408.5 Z"/></g>
<g><path style="opacity:1" fill="#fdfdfe" d="M 3907.5,4421.5 C 3910.85,4423.26 3914.52,4424.26 3918.5,4424.5C 3946.7,4435.38 3963.7,4455.71 3969.5,4485.5C 3970.45,4496.5 3970.12,4507.5 3968.5,4518.5C 3962.22,4542.11 3948.22,4559.44 3926.5,4570.5C 3923.94,4571.09 3921.6,4572.09 3919.5,4573.5C 3917.1,4573.26 3915.1,4573.93 3913.5,4575.5C 3870.72,4581.98 3840.89,4565.32 3824,4525.5C 3823.73,4522.75 3823.23,4520.08 3822.5,4517.5C 3822.71,4514.5 3822.04,4511.84 3820.5,4509.5C 3820.33,4500.49 3820.5,4491.49 3821,4482.5C 3821.9,4479.04 3823.07,4475.71 3824.5,4472.5C 3826.07,4470.9 3826.74,4468.9 3826.5,4466.5C 3836.32,4444.67 3852.66,4430.34 3875.5,4423.5C 3878.15,4423.59 3880.49,4422.92 3882.5,4421.5C 3890.84,4420.2 3899.17,4420.2 3907.5,4421.5 Z"/></g>
<g><path style="opacity:1" fill="#878ba4" d="M 3907.5,4421.5 C 3911.48,4421.74 3915.15,4422.74 3918.5,4424.5C 3914.52,4424.26 3910.85,4423.26 3907.5,4421.5 Z"/></g>
<g><path style="opacity:1" fill="#9c9eb4" d="M 3882.5,4421.5 C 3880.49,4422.92 3878.15,4423.59 3875.5,4423.5C 3877.51,4422.08 3879.85,4421.41 3882.5,4421.5 Z"/></g>
<g><path style="opacity:1" fill="#787d99" d="M 4083.5,4418.5 C 4085.25,4420.03 4086.25,4422.03 4086.5,4424.5C 4084.75,4422.97 4083.75,4420.97 4083.5,4418.5 Z"/></g>
<g><path style="opacity:1" fill="#80849f" d="M 2957.5,4434.5 C 3102.6,4435.17 3247.6,4435.83 3392.5,4436.5C 3392.17,4436.5 3391.83,4436.5 3391.5,4436.5C 3246.5,4437.17 3101.83,4436.5 2957.5,4434.5 Z"/></g>
<g><path style="opacity:1" fill="#9d9fb4" d="M 4092.5,4443.5 C 4094.07,4445.1 4094.74,4447.1 4094.5,4449.5C 4092.93,4447.9 4092.26,4445.9 4092.5,4443.5 Z"/></g>
<g><path style="opacity:1" fill="#747a97" d="M 3695.5,4457.5 C 3695.74,4459.9 3695.07,4461.9 3693.5,4463.5C 3693.26,4461.1 3693.93,4459.1 3695.5,4457.5 Z"/></g>
<g><path style="opacity:1" fill="#b0b1c3" d="M 3826.5,4466.5 C 3826.74,4468.9 3826.07,4470.9 3824.5,4472.5C 3824.26,4470.1 3824.93,4468.1 3826.5,4466.5 Z"/></g>
<g><path style="opacity:1" fill="#394c72" d="M 4096.5,4463.5 C 4098.05,4467.9 4098.88,4472.57 4099,4477.5C 4099.83,4492.34 4099.66,4507.01 4098.5,4521.5C 4098.87,4502.12 4098.2,4482.79 4096.5,4463.5 Z"/></g>
<g><path style="opacity:1" fill="#a2a4b8" d="M 3969.5,4485.5 C 3971.94,4495.3 3972.11,4505.3 3970,4515.5C 3969.77,4516.74 3969.27,4517.74 3968.5,4518.5C 3970.12,4507.5 3970.45,4496.5 3969.5,4485.5 Z"/></g>
<g><path style="opacity:1" fill="#adaec0" d="M 3820.5,4509.5 C 3822.04,4511.84 3822.71,4514.5 3822.5,4517.5C 3820.96,4515.16 3820.29,4512.5 3820.5,4509.5 Z"/></g>
<g><path style="opacity:1" fill="#6e7694" d="M 3691.5,4516.5 C 3693.96,4525.52 3695.3,4534.86 3695.5,4544.5C 3694.26,4538.98 3693.09,4533.31 3692,4527.5C 3691.5,4523.85 3691.33,4520.18 3691.5,4516.5 Z"/></g>
<g><path style="opacity:1" fill="#505d80" d="M 4098.5,4524.5 C 4097.53,4532.18 4096.36,4539.85 4095,4547.5C 4094.72,4548.42 4094.22,4549.08 4093.5,4549.5C 4094.66,4542.88 4095.49,4536.22 4096,4529.5C 4096.76,4527.69 4097.59,4526.02 4098.5,4524.5 Z"/></g>
<g><path style="opacity:1" fill="#6f7694" d="M 4093.5,4551.5 C 4092.99,4555.08 4091.99,4558.42 4090.5,4561.5C 4090.8,4558.48 4091.3,4555.48 4092,4552.5C 4092.38,4551.94 4092.88,4551.61 4093.5,4551.5 Z"/></g>
<g><path style="opacity:1" fill="#727896" d="M 3926.5,4570.5 C 3924.81,4572.82 3922.48,4573.82 3919.5,4573.5C 3921.6,4572.09 3923.94,4571.09 3926.5,4570.5 Z"/></g>
<g><path style="opacity:1" fill="#6d7593" d="M 3919.5,4573.5 C 3917.9,4575.07 3915.9,4575.74 3913.5,4575.5C 3915.1,4573.93 3917.1,4573.26 3919.5,4573.5 Z"/></g>
<g><path style="opacity:1" fill="#566082" d="M 3391.5,4436.5 C 3391.83,4436.5 3392.17,4436.5 3392.5,4436.5C 3392.5,4486.5 3392.5,4536.5 3392.5,4586.5C 3222.67,4586.83 3053,4586.5 2883.5,4585.5C 3052.83,4585.5 3222.17,4585.5 3391.5,4585.5C 3391.5,4535.83 3391.5,4486.17 3391.5,4436.5 Z"/></g>
<g><path style="opacity:1" fill="#80849f" d="M 3817.5,4690.5 C 3819.97,4690.75 3821.97,4691.75 3823.5,4693.5C 3821.03,4693.25 3819.03,4692.25 3817.5,4690.5 Z"/></g>
<g><path style="opacity:1" fill="#9194ac" d="M 3964.5,4694.5 C 3963.07,4695.54 3961.4,4696.2 3959.5,4696.5C 3960.64,4694.79 3962.3,4694.12 3964.5,4694.5 Z"/></g>
<g><path style="opacity:1" fill="#9a9db3" d="M 3947.5,4699.5 C 3945.22,4701.22 3942.55,4701.89 3939.5,4701.5C 3941.96,4700.47 3944.63,4699.8 3947.5,4699.5 Z"/></g>
<g><path style="opacity:1" fill="#737997" d="M 3848.5,4700.5 C 3850.9,4700.26 3852.9,4700.93 3854.5,4702.5C 3852.1,4702.74 3850.1,4702.07 3848.5,4700.5 Z"/></g>
<g><path style="opacity:1" fill="#a9aabd" d="M 3855.5,4702.5 C 3859.08,4702.55 3862.41,4703.22 3865.5,4704.5C 3862.81,4704.66 3860.15,4704.5 3857.5,4704C 3856.58,4703.72 3855.92,4703.22 3855.5,4702.5 Z"/></g>
<g><path style="opacity:1" fill="#9295ac" d="M 3865.5,4704.5 C 3872.08,4704.16 3878.42,4704.82 3884.5,4706.5C 3884.5,4706.83 3884.5,4707.17 3884.5,4707.5C 3877.92,4707.25 3871.59,4706.25 3865.5,4704.5 Z"/></g>
<g><path style="opacity:1" fill="#636b8b" d="M 3919.5,4704.5 C 3917.34,4705.47 3915,4706.3 3912.5,4707C 3903.17,4707.5 3893.84,4707.67 3884.5,4707.5C 3884.5,4707.17 3884.5,4706.83 3884.5,4706.5C 3896.2,4706.38 3907.87,4705.71 3919.5,4704.5 Z"/></g>
</svg>
